<?xml version="1.0" encoding="UTF-8"?>
<svg version="1.1" xmlns="http://www.w3.org/2000/svg" width="287" height="283">
<path d="M0 0 C4.31316847 1.48591465 7.78451832 3.76825085 11.4375 6.4375 C12.04948242 6.8799707 12.66146484 7.32244141 13.29199219 7.77832031 C19.33758355 12.183275 25.20072809 16.80969695 31.05615234 21.46240234 C34.70787579 24.35094219 38.38614367 27.20542392 42.0625 30.0625 C42.82723633 30.65724121 43.59197266 31.25198242 44.37988281 31.86474609 C48.90817554 35.3836271 53.44905776 38.88548805 58 42.375 C81.2722973 60.2722973 81.2722973 60.2722973 90 69 C89.82293664 73.72437233 87.54954393 75.99888995 84.375 79.3125 C83.45634223 80.28450551 82.53837624 81.25716529 81.62109375 82.23046875 C80.75613281 83.14441406 79.89117187 84.05835938 79 85 C77.804147 86.36774152 76.61551826 87.74186797 75.4375 89.125 C70.75474276 94.51625952 65.60968086 99.45556116 60.5 104.4375 C58.92898262 106.04779282 57.4020843 107.70363083 55.9453125 109.41796875 C48.08598726 118.58718153 48.08598726 118.58718153 42 120 C28.31656351 120.97555457 15.21528313 107.82430139 5 100 C3.97952072 99.32999466 2.95904144 98.65998932 1.90763855 97.96968079 C0.01818356 96.37520653 -0.87568189 95.4433414 -1.54780769 93.04641628 C-1.74608266 90.61857126 -1.75369907 88.25475974 -1.69702148 85.81933594 C-1.69950394 84.90337646 -1.70198639 83.98741699 -1.70454407 83.04370117 C-1.70546073 80.02307894 -1.66369277 77.00467142 -1.62109375 73.984375 C-1.61243874 71.88642233 -1.60629329 69.78845792 -1.60255432 67.69049072 C-1.58533245 62.17328417 -1.5312088 56.65700919 -1.47027588 51.14013672 C-1.42661276 46.6238906 -1.40911704 42.10772102 -1.39300442 37.59130478 C-1.37344322 32.22227362 -1.34285314 26.85333062 -1.30859375 21.484375 C-1.30216795 20.45376701 -1.29574215 19.42315903 -1.28912163 18.3613205 C-1.26824075 15.46181635 -1.23994897 12.56249517 -1.20874023 9.66308594 C-1.20290924 8.79556702 -1.19707825 7.9280481 -1.19107056 7.03424072 C-1.11533412 1.11533412 -1.11533412 1.11533412 0 0 Z " fill="#FAA004" transform="translate(149,133)"/>
<path d="M0 0 C0.99 0.33 1.98 0.66 3 1 C3.11588995 13.02196595 3.20471377 25.04379885 3.25906086 37.06620979 C3.28514589 42.64883287 3.32052468 48.23107356 3.37719727 53.81347656 C3.43155499 59.20162587 3.46142877 64.58940755 3.47438622 69.97780991 C3.48361926 72.03273175 3.50164945 74.08763365 3.52865028 76.14239883 C3.5649902 79.02261965 3.56994323 81.90132481 3.56762695 84.78173828 C3.58560333 85.62978531 3.60357971 86.47783234 3.62210083 87.35157776 C3.58575484 91.53312346 3.28856013 94.16612082 0.59335327 97.46394348 C-1.56537819 99.57498059 -3.63396956 101.4855025 -6.07421875 103.25390625 C-6.81913574 103.79635986 -7.56405273 104.33881348 -8.33154297 104.89770508 C-9.10900879 105.4470874 -9.88647461 105.99646973 -10.6875 106.5625 C-11.4933252 107.13315186 -12.29915039 107.70380371 -13.12939453 108.29174805 C-21.72302772 114.29897318 -28.24843744 118.44453774 -38.9453125 118.859375 C-43.70605228 117.52003644 -46.51374234 114.40629762 -50 111 C-50.82274414 110.20319824 -51.64548828 109.40639648 -52.49316406 108.58544922 C-55.20339902 105.93094529 -57.88573441 103.25072925 -60.5625 100.5625 C-61.46935547 99.65951172 -62.37621094 98.75652344 -63.31054688 97.82617188 C-67.88834226 93.24173719 -72.31800382 88.59906414 -76.53637695 83.68188477 C-78.36551569 81.57997705 -80.31097518 79.62484767 -82.3125 77.6875 C-84.57962809 75.49163723 -86.2329714 73.6505429 -88 71 C-87.96638572 67.7864747 -86.84375231 66.84400151 -84.55078125 64.5546875 C-83.48062216 63.65037523 -82.40045906 62.75781723 -81.3125 61.875 C-80.44226196 61.15376953 -80.44226196 61.15376953 -79.55444336 60.41796875 C-74.95244682 56.65488748 -70.17493207 53.17792369 -65.30615234 49.77099609 C-59.2554381 45.52596612 -53.49285568 40.94382618 -47.70703125 36.34814453 C-43.37385726 32.92597823 -38.97810782 29.58378752 -34.59570312 26.22509766 C-32.48600453 24.60538108 -30.38216813 22.97809258 -28.27734375 21.35205078 C-20.77846564 15.56437243 -13.22185603 9.85222957 -5.60888672 4.21533203 C-4.28242317 3.21333878 -2.99632046 2.15814872 -1.72265625 1.08984375 C-1.15417969 0.73019531 -0.58570313 0.37054688 0 0 Z " fill="#065136" transform="translate(134,134)"/>
<path d="M0 0 C0.99 0.495 0.99 0.495 2 1 C2.17528316 5.02027658 2.28118359 9.0395628 2.375 13.0625 C2.42527344 14.19623047 2.47554688 15.32996094 2.52734375 16.49804688 C2.69312594 25.97526199 2.69312594 25.97526199 -0.6875 30.03125 C-1.75726378 31.05792651 -2.86066776 32.05111579 -4 33 C-4.89460938 33.78246094 -5.78921875 34.56492188 -6.7109375 35.37109375 C-7.59007813 36.05300781 -8.46921875 36.73492187 -9.375 37.4375 C-13.56884904 40.78009416 -17.3783823 44.26450776 -21.11328125 48.10546875 C-22.97091284 49.97079239 -24.88754104 51.71186198 -26.875 53.4375 C-27.53242187 54.00855469 -28.18984375 54.57960937 -28.8671875 55.16796875 C-30.38507392 56.47179426 -31.91213597 57.76497026 -33.4453125 59.05078125 C-42.39100595 66.75173754 -49.08813153 74.1610938 -51 86 C-51.20127647 88.97816076 -51.16316069 91.92730175 -51.09765625 94.91015625 C-51.09359475 96.57616807 -51.09170674 98.24218636 -51.09179688 99.90820312 C-51.08368683 102.49186593 -51.06227368 105.0724739 -51.00366211 107.65551758 C-50.71148852 121.97745943 -50.71148852 121.97745943 -53.72753906 126.71166992 C-56.03133721 128.80178903 -58.34521506 130.38436151 -61 132 C-62.6046119 133.21179848 -64.201043 134.43450655 -65.7890625 135.66796875 C-67.39765687 136.84578259 -69.00964617 138.01897388 -70.625 139.1875 C-71.83542969 140.07211914 -71.83542969 140.07211914 -73.0703125 140.97460938 C-74.64229042 142.12169391 -76.21799423 143.26369448 -77.79785156 144.39990234 C-79.22596556 145.43758074 -80.64052348 146.49428034 -82.03808594 147.57275391 C-83.63780955 148.78997142 -85.31352927 149.90613045 -87 151 C-87.99 150.67 -88.98 150.34 -90 150 C-90.0699339 141.86271792 -90.12302907 133.72556429 -90.15543652 125.58805466 C-90.17100124 121.80826854 -90.19206809 118.02869009 -90.22631836 114.24902344 C-90.25924421 110.59205372 -90.27692187 106.93528202 -90.28463173 103.27817535 C-90.29011635 101.8925185 -90.30082379 100.50687079 -90.31719017 99.12129974 C-90.50747155 82.32300815 -87.13301026 69.88014874 -75.5703125 57.53515625 C-68.51522763 50.5765695 -60.72130648 44.69747454 -52.62963867 39.02685547 C-46.88336108 34.97899656 -41.36170076 30.66295378 -35.83154297 26.32666016 C-30.11535852 21.84989547 -24.33158631 17.47441692 -18.50561523 13.1418457 C-13.87592641 9.68852913 -9.36020645 6.11872584 -4.91796875 2.42578125 C-3 1 -3 1 0 0 Z " fill="#07A390" transform="translate(135,34)"/>
<path d="M0 0 C4.42946238 0.3768119 6.69393075 2.0698881 10 4.9375 C10.96679688 5.75605469 11.93359375 6.57460938 12.9296875 7.41796875 C13.43467773 7.8464209 13.93966797 8.27487305 14.45996094 8.71630859 C18.57828789 12.14911822 22.89444787 15.34199808 27.15771484 18.59179688 C29.14742203 20.11268623 31.1306638 21.6417565 33.11328125 23.171875 C39.75118081 28.28579011 46.4067894 33.3505396 53.25 38.1875 C86.53902706 61.76227449 86.53902706 61.76227449 90.56712341 81.82461548 C91.01533081 85.11245983 91.12008181 88.23860371 91.11352539 91.55615234 C91.11341209 93.47746475 91.11341209 93.47746475 91.11329651 95.43759155 C91.10819105 96.82037394 91.10297508 98.20315592 91.09765625 99.5859375 C91.09578917 101.01225739 91.09436664 102.43857792 91.09336853 103.86489868 C91.08956615 107.60326942 91.07975552 111.34160078 91.06866455 115.07995605 C91.05840124 118.90095487 91.0538604 122.7219601 91.04882812 126.54296875 C91.03813103 134.02866371 91.02108223 141.51432632 91 149 C86.18131099 149 84.92884669 147.88735895 81.0625 145.125 C80.21631104 144.5230481 80.21631104 144.5230481 79.35302734 143.90893555 C55.34689735 126.69379469 55.34689735 126.69379469 53 122 C52.87916481 119.2628773 52.81428581 116.5468881 52.7890625 113.80859375 C52.76096796 112.12433967 52.73230337 110.44009503 52.703125 108.75585938 C52.6620666 106.10539273 52.62517622 103.4550972 52.59863281 100.80444336 C52.57076706 98.24295649 52.52487149 95.68226636 52.4765625 93.12109375 C52.47330963 92.34261581 52.47005676 91.56413788 52.46670532 90.7620697 C52.27196334 81.90273 49.76622151 74.92706064 43.8125 68.375 C43.2978418 67.79161865 42.78318359 67.2082373 42.25292969 66.60717773 C34.43804836 57.93127629 25.71761925 50.09098581 16.9140625 42.4375 C13.38888707 39.36284955 9.96480047 36.21223942 6.625 32.9375 C6.10550781 32.44701172 5.58601562 31.95652344 5.05078125 31.45117188 C0.20615747 26.68791775 -1.04831896 22.70459571 -1.23046875 16.07421875 C-1.22651653 14.27859306 -1.21195434 12.48296351 -1.1875 10.6875 C-1.18685547 9.76904297 -1.18621094 8.85058594 -1.18554688 7.90429688 C-1.14055525 1.14055525 -1.14055525 1.14055525 0 0 Z " fill="#FB8109" transform="translate(149,35)"/>
<path d="M0 0 C3.12584155 1.17744352 4.83977049 2.71794998 6.91015625 5.2890625 C10.19717878 9.17253117 13.69180247 12.76435853 17.30859375 16.3359375 C17.88276031 16.9044342 18.45692688 17.47293091 19.04849243 18.05865479 C21.44326036 20.42651799 23.84187783 22.79039744 26.24536133 25.14941406 C40.40260625 39.0622035 47.7365673 47.63424334 48.0625 67.8828125 C48.0625 70.92260162 48.04612934 73.96058906 48 77 C46.38671875 77.7578125 46.38671875 77.7578125 44 78 C41.75456115 76.71601445 39.85200157 75.43599645 37.8125 73.875 C37.20809082 73.42777588 36.60368164 72.98055176 35.98095703 72.51977539 C33.97560071 71.02811017 31.98677597 69.51631043 30 68 C28.95030029 67.20360107 28.95030029 67.20360107 27.87939453 66.39111328 C15.39724605 56.91575809 15.39724605 56.91575809 9.39453125 52.13671875 C8.5749292 51.49488647 8.5749292 51.49488647 7.73876953 50.84008789 C6.29174521 49.70665383 4.85445631 48.56082126 3.41796875 47.4140625 C1.18430163 45.77795917 1.18430163 45.77795917 -0.92236328 46.24487305 C-3.23909379 47.08689978 -4.74085412 48.12500037 -6.66015625 49.66796875 C-7.36245361 50.22508545 -8.06475098 50.78220215 -8.78833008 51.35620117 C-9.53880615 51.96052979 -10.28928223 52.5648584 -11.0625 53.1875 C-17.73205905 58.46776798 -24.46302548 63.64238154 -31.3125 68.6875 C-32.10599854 69.27490967 -32.89949707 69.86231934 -33.71704102 70.4675293 C-43.96635723 78 -43.96635723 78 -48 78 C-48.11668418 73.47938558 -48.18741645 68.95916153 -48.25 64.4375 C-48.28351563 63.16068359 -48.31703125 61.88386719 -48.3515625 60.56835938 C-48.44000634 52.05563972 -47.83247393 47.59896872 -42.359375 41.03125 C-39.44277377 38.25623136 -36.49307262 35.54992995 -33.4296875 32.9375 C-28.18090314 28.35753581 -23.28831081 23.43424821 -18.375 18.5 C-17.45976563 17.58863281 -16.54453125 16.67726563 -15.6015625 15.73828125 C-11.76304696 11.89421872 -7.97528955 8.064834 -4.4765625 3.90625 C-2 1 -2 1 0 0 Z " fill="#0A9D8C" transform="translate(143,69)"/>
<path d="M0 0 C2.475 0.495 2.475 0.495 5 1 C5 13.87 5 26.74 5 40 C4.34 40 3.68 40 3 40 C2.81566406 40.54785156 2.63132813 41.09570312 2.44140625 41.66015625 C0.29401762 45.1460256 -2.76777911 47.07303028 -6.0625 49.4375 C-7.51248502 50.49895404 -8.96167666 51.56149254 -10.41015625 52.625 C-11.16312988 53.17542969 -11.91610352 53.72585937 -12.69189453 54.29296875 C-17.20779445 57.63284311 -21.63426814 61.09201075 -26.06274414 64.54663086 C-38.31279107 74 -38.31279107 74 -43 74 C-43.11668418 69.47938558 -43.18741645 64.95916153 -43.25 60.4375 C-43.28351563 59.16068359 -43.31703125 57.88386719 -43.3515625 56.56835938 C-43.44000634 48.05563972 -42.83247393 43.59896872 -37.359375 37.03125 C-34.44671718 34.25998334 -31.50127283 31.55738098 -28.44140625 28.94921875 C-23.12195524 24.30806225 -18.166844 19.31275098 -13.1875 14.3125 C-12.23779754 13.36636846 -11.28792864 12.42040397 -10.33789062 11.47460938 C-9.43619141 10.57162109 -8.53449219 9.66863281 -7.60546875 8.73828125 C-6.79231201 7.92399658 -5.97915527 7.10971191 -5.14135742 6.27075195 C-3.25081187 4.26596753 -1.59541364 2.2425764 0 0 Z " fill="#054932" transform="translate(138,73)"/>
<path d="M0 0 C4.31316847 1.48591465 7.78451832 3.76825085 11.4375 6.4375 C12.04948242 6.8799707 12.66146484 7.32244141 13.29199219 7.77832031 C19.33758355 12.183275 25.20072809 16.80969695 31.05615234 21.46240234 C34.70787579 24.35094219 38.38614367 27.20542392 42.0625 30.0625 C42.82723633 30.65724121 43.59197266 31.25198242 44.37988281 31.86474609 C48.90817554 35.3836271 53.44905776 38.88548805 58 42.375 C81.2722973 60.2722973 81.2722973 60.2722973 90 69 C89.82293664 73.72437233 87.54954393 75.99888995 84.375 79.3125 C83.45634223 80.28450551 82.53837624 81.25716529 81.62109375 82.23046875 C80.75613281 83.14441406 79.89117187 84.05835938 79 85 C77.804147 86.36774152 76.61551826 87.74186797 75.4375 89.125 C70.75474276 94.51625952 65.60968086 99.45556116 60.5 104.4375 C58.92898262 106.04779282 57.4020843 107.70363083 55.9453125 109.41796875 C48.08598726 118.58718153 48.08598726 118.58718153 42 120 C28.31656351 120.97555457 15.21528313 107.82430139 5 100 C3.97952072 99.32999466 2.95904144 98.65998932 1.90763855 97.96968079 C0.01818356 96.37520653 -0.87568189 95.4433414 -1.54780769 93.04641628 C-1.74608266 90.61857126 -1.75369907 88.25475974 -1.69702148 85.81933594 C-1.69950394 84.90337646 -1.70198639 83.98741699 -1.70454407 83.04370117 C-1.70546073 80.02307894 -1.66369277 77.00467142 -1.62109375 73.984375 C-1.61243874 71.88642233 -1.60629329 69.78845792 -1.60255432 67.69049072 C-1.58533245 62.17328417 -1.5312088 56.65700919 -1.47027588 51.14013672 C-1.42661276 46.6238906 -1.40911704 42.10772102 -1.39300442 37.59130478 C-1.37344322 32.22227362 -1.34285314 26.85333062 -1.30859375 21.484375 C-1.30216795 20.45376701 -1.29574215 19.42315903 -1.28912163 18.3613205 C-1.26824075 15.46181635 -1.23994897 12.56249517 -1.20874023 9.66308594 C-1.20290924 8.79556702 -1.19707825 7.9280481 -1.19107056 7.03424072 C-1.11533412 1.11533412 -1.11533412 1.11533412 0 0 Z M2 6 C1.88420805 17.27419783 1.79533626 28.54825448 1.74093914 39.82292557 C1.7148326 45.05810786 1.67941497 50.29288369 1.62280273 55.52783203 C1.56852109 60.57881419 1.53858743 65.62940513 1.52561378 70.68065643 C1.51636701 72.60884512 1.49831017 74.53701212 1.47134972 76.46503448 C1.43511013 79.16368566 1.43005245 81.86071541 1.43237305 84.55957031 C1.41439667 85.35870346 1.39642029 86.15783661 1.37789917 86.98118591 C1.41412684 90.8685348 1.6204969 92.6015781 4.34797668 95.46502686 C6.97165637 97.1025187 6.97165637 97.1025187 10 98 C10.4125 98.474375 10.825 98.94875 11.25 99.4375 C13.829945 101.74102233 16.69277566 102.18879403 20 103 C20 103.99 20 104.98 20 106 C20.66 106 21.32 106 22 106 C22.33 106.99 22.66 107.98 23 109 C25.01508358 109.73323796 25.01508358 109.73323796 27 110 C27 110.99 27 111.98 27 113 C28.98 113.33 30.96 113.66 33 114 C33 114.66 33 115.32 33 116 C34.58294782 116.05437607 36.16644256 116.09296271 37.75 116.125 C38.63171875 116.14820313 39.5134375 116.17140625 40.421875 116.1953125 C43.14289335 115.98917475 44.72944692 115.4928234 47 114 C47.144375 113.34 47.28875 112.68 47.4375 112 C47.7159375 111.01 47.7159375 111.01 48 110 C48.804375 109.690625 49.60875 109.38125 50.4375 109.0625 C51.283125 108.711875 52.12875 108.36125 53 108 C53.268125 107.236875 53.53625 106.47375 53.8125 105.6875 C55.4348809 102.01579586 57.834197 101.10127592 61.3203125 99.30859375 C62.15175781 98.66083984 62.15175781 98.66083984 63 98 C63 96.68 63 95.36 63 94 C63.721875 93.87625 64.44375 93.7525 65.1875 93.625 C66.5796875 93.315625 66.5796875 93.315625 68 93 C69.299375 92.7834375 69.299375 92.7834375 70.625 92.5625 C74.1521777 90.24198836 74.39165263 87.20256512 75.32421875 83.21484375 C75.54722656 82.48394531 75.77023438 81.75304687 76 81 C76.66 80.67 77.32 80.34 78 80 C78 79.34 78 78.68 78 78 C78.99 77.67 79.98 77.34 81 77 C84.31411914 73.54923283 84.31411914 73.54923283 85 69 C83.68 69 82.36 69 81 69 C80.938125 68.4225 80.87625 67.845 80.8125 67.25 C79.6726745 64.09356014 77.66405371 62.96632536 75 61 C72.90903621 59.21880862 72.10373462 58.34892556 71.3125 55.6875 C69.28689057 51.53982354 65.94129527 49.29179021 62 47 C58.69580503 46.05384405 58.69580503 46.05384405 56 46 C55.67 45.01 55.34 44.02 55 43 C51.23134752 40.72638745 51.23134752 40.72638745 47 40 C47 39.01 47 38.02 47 37 C44.84471403 35.29471253 44.84471403 35.29471253 42.125 33.8125 C41.22007812 33.28269531 40.31515625 32.75289062 39.3828125 32.20703125 C37.14782325 30.84937093 37.14782325 30.84937093 35 31 C34.505 29.515 34.505 29.515 34 28 C31.88553125 26.27019064 31.88553125 26.27019064 29.3125 24.625 C26.24709185 22.56241823 23.32762802 20.51340893 20.5625 18.0625 C18.15873155 15.6864953 18.15873155 15.6864953 15 16 C14.92523438 15.23300781 14.85046875 14.46601563 14.7734375 13.67578125 C14.24469232 10.88807625 14.24469232 10.88807625 12.0390625 9.41796875 C11.24242187 9.01191406 10.44578125 8.60585937 9.625 8.1875 C8.83351562 7.76855469 8.04203125 7.34960938 7.2265625 6.91796875 C4.93914001 5.80942117 4.93914001 5.80942117 2 6 Z " fill="#E5A52B" transform="translate(149,133)"/>
<path d="M0 0 C4.42946238 0.3768119 6.69393075 2.0698881 10 4.9375 C10.96679688 5.75605469 11.93359375 6.57460938 12.9296875 7.41796875 C13.43467773 7.8464209 13.93966797 8.27487305 14.45996094 8.71630859 C18.57419536 12.14570691 22.88564538 15.33620549 27.14453125 18.58300781 C29.17257692 20.13179427 31.19589053 21.68663417 33.21875 23.2421875 C41.06873372 29.27251725 48.94651412 35.24254034 57 41 C56.01 41.495 56.01 41.495 55 42 C52.375 41.0625 52.375 41.0625 50 40 C50 39.34 50 38.68 50 38 C48.68 37.67 47.36 37.34 46 37 C46 36.34 46 35.68 46 35 C45.21625 34.855625 44.4325 34.71125 43.625 34.5625 C41 34 41 34 39 33 C39 32.34 39 31.68 39 31 C38.195625 30.71125 37.39125 30.4225 36.5625 30.125 C34 29 34 29 33 27 C32.175 26.67 31.35 26.34 30.5 26 C28 25 28 25 27 23 C25.11986894 21.87775145 25.11986894 21.87775145 22.9375 20.875 C22.20402344 20.52179687 21.47054687 20.16859375 20.71484375 19.8046875 C20.14894531 19.53914063 19.58304688 19.27359375 19 19 C19 18.34 19 17.68 19 17 C18.443125 16.7525 17.88625 16.505 17.3125 16.25 C15 15 15 15 12.6875 13.125 C9.59874379 10.68272765 6.44878428 8.89345019 3 7 C2.89154969 9.56364483 2.81250256 12.12266279 2.75 14.6875 C2.69972656 15.7693457 2.69972656 15.7693457 2.6484375 16.87304688 C2.55582981 21.94331799 3.40540489 24.18604967 7 28 C7 28.66 7 29.32 7 30 C8.52153541 31.30916605 8.52153541 31.30916605 10.5 32.625 C16.22885416 36.7822216 21.27892294 41.57309398 25.4375 47.3125 C28.47996667 50.50337968 30.7721306 51.06583606 34.9140625 52.21484375 C37.94535971 53.35583764 39.25779019 55.35184108 41 58 C41.99 58.495 41.99 58.495 43 59 C43.1546875 59.928125 43.1546875 59.928125 43.3125 60.875 C43.83108285 63.28279664 43.83108285 63.28279664 46.5625 64.5 C47.366875 64.995 48.17125 65.49 49 66 C49 67.32 49 68.64 49 70 C49.66 70 50.32 70 51 70 C54 76.5 54 76.5 54 81 C54.66 81 55.32 81 56 81 C57.23411072 84.70233215 57.13538901 88.13721595 57.140625 91.9921875 C57.15895113 93.6002746 57.17852127 95.20834792 57.19921875 96.81640625 C57.22819032 99.34675412 57.25000023 101.87621372 57.25048828 104.40673828 C57.25382778 106.85268594 57.28839804 109.2965947 57.328125 111.7421875 C57.3210553 112.49442596 57.3139856 113.24666443 57.30670166 114.021698 C57.39949796 118.03920842 57.82009023 119.7843904 60.42871094 122.91064453 C61.70149902 123.94487549 61.70149902 123.94487549 63 125 C64.8125 126.6875 64.8125 126.6875 66 128 C66 128.66 66 129.32 66 130 C66.99 130.33 67.98 130.66 69 131 C69.78375 131.804375 70.5675 132.60875 71.375 133.4375 C73.76217812 136.12999984 73.76217812 136.12999984 76.6875 136.9375 C79 138 79 138 80.3125 141.125 C80.539375 142.07375 80.76625 143.0225 81 144 C78.22569117 142.68985664 75.80756086 141.23157227 73.35546875 139.390625 C72.67806641 138.88273438 72.00066406 138.37484375 71.30273438 137.8515625 C70.60470703 137.32304687 69.90667969 136.79453125 69.1875 136.25 C68.50107422 135.73695313 67.81464844 135.22390625 67.10742188 134.6953125 C54.66118171 125.32236343 54.66118171 125.32236343 53 122 C52.87916481 119.2628773 52.81428581 116.5468881 52.7890625 113.80859375 C52.76096796 112.12433967 52.73230337 110.44009503 52.703125 108.75585938 C52.6620666 106.10539273 52.62517622 103.4550972 52.59863281 100.80444336 C52.57076706 98.24295649 52.52487149 95.68226636 52.4765625 93.12109375 C52.47330963 92.34261581 52.47005676 91.56413788 52.46670532 90.7620697 C52.27196334 81.90273 49.76622151 74.92706064 43.8125 68.375 C43.2978418 67.79161865 42.78318359 67.2082373 42.25292969 66.60717773 C34.43804836 57.93127629 25.71761925 50.09098581 16.9140625 42.4375 C13.38888707 39.36284955 9.96480047 36.21223942 6.625 32.9375 C6.10550781 32.44701172 5.58601562 31.95652344 5.05078125 31.45117188 C0.20615747 26.68791775 -1.04831896 22.70459571 -1.23046875 16.07421875 C-1.22651653 14.27859306 -1.21195434 12.48296351 -1.1875 10.6875 C-1.18685547 9.76904297 -1.18621094 8.85058594 -1.18554688 7.90429688 C-1.14055525 1.14055525 -1.14055525 1.14055525 0 0 Z " fill="#E28C3A" transform="translate(149,35)"/>
<path d="M0 0 C0 3 0 3 -1 6 C-1.66 6 -2.32 6 -3 6 C-3 7.65 -3 9.3 -3 11 C-3.63808594 11.22042969 -4.27617188 11.44085938 -4.93359375 11.66796875 C-7.23758518 12.83586326 -7.23758518 12.83586326 -7.72265625 15.42578125 C-7.83480469 16.37839844 -7.94695313 17.33101562 -8.0625 18.3125 C-8.45287318 21.52759601 -8.72230781 23.57811755 -10.51557922 26.30253601 C-12.25965141 29.4718341 -12.36367962 31.38720602 -12.34057617 34.98364258 C-12.34034958 36.16448929 -12.34012299 37.345336 -12.33988953 38.56196594 C-12.32440567 39.82671249 -12.30892181 41.09145905 -12.29296875 42.39453125 C-12.28872391 43.69702316 -12.28447906 44.99951508 -12.28010559 46.34147644 C-12.26869012 49.79232267 -12.23925217 53.24278583 -12.20599365 56.69348145 C-12.17522108 60.21942972 -12.16158497 63.74544032 -12.14648438 67.27148438 C-12.11437868 74.18114624 -12.06322281 81.09055469 -12 88 C-11.2575 87.505 -10.515 87.01 -9.75 86.5 C-7 85 -7 85 -3 85 C-3 84.34 -3 83.68 -3 83 C-2.21625 82.9175 -1.4325 82.835 -0.625 82.75 C2.14749104 82.27193661 2.14749104 82.27193661 3.3125 79.9375 C3.539375 79.298125 3.76625 78.65875 4 78 C4.99 78 5.98 78 7 78 C7 77.34 7 76.68 7 76 C7.99 76 8.98 76 10 76 C10 75.34 10 74.68 10 74 C10.99 74 11.98 74 13 74 C13 73.34 13 72.68 13 72 C13.99 71.01 13.99 71.01 15 70 C15.99 70 16.98 70 18 70 C18 68.35 18 66.7 18 65 C18.33 65 18.66 65 19 65 C19.01458252 63.92105469 19.02916504 62.84210938 19.04418945 61.73046875 C19.10250938 57.69710459 19.17973793 53.66427919 19.26245117 49.63134766 C19.29554293 47.89152828 19.32362307 46.15160561 19.34643555 44.41162109 C19.38027355 41.89896959 19.43260026 39.38725134 19.48828125 36.875 C19.49786613 35.72294067 19.49786613 35.72294067 19.50764465 34.54760742 C19.65270953 29.12319202 20.87150143 24.99540526 23 20 C23.66 20.33 24.32 20.66 25 21 C24.85675797 21.54631577 24.71351593 22.09263153 24.56593323 22.65550232 C23.2109984 28.19212596 22.77759136 33.22934722 22.90234375 38.91015625 C22.90640525 40.57616807 22.90829326 42.24218636 22.90820312 43.90820312 C22.91631317 46.49186593 22.93772632 49.0724739 22.99633789 51.65551758 C23.28851148 65.97745943 23.28851148 65.97745943 20.27246094 70.71166992 C17.96866279 72.80178903 15.65478494 74.38436151 13 76 C11.3953881 77.21179848 9.798957 78.43450655 8.2109375 79.66796875 C6.60234313 80.84578259 4.99035383 82.01897388 3.375 83.1875 C2.56804688 83.77724609 1.76109375 84.36699219 0.9296875 84.97460938 C-0.64229042 86.12169391 -2.21799423 87.26369448 -3.79785156 88.39990234 C-5.22596556 89.43758074 -6.64052348 90.49428034 -8.03808594 91.57275391 C-9.63780955 92.78997142 -11.31352927 93.90613045 -13 95 C-13.99 94.67 -14.98 94.34 -16 94 C-16.0699339 85.86271792 -16.12302907 77.72556429 -16.15543652 69.58805466 C-16.17100124 65.80826854 -16.19206809 62.02869009 -16.22631836 58.24902344 C-16.25924421 54.59205372 -16.27692187 50.93528202 -16.28463173 47.27817535 C-16.29011635 45.8925185 -16.30082379 44.50687079 -16.31719017 43.12129974 C-16.52123715 25.10776252 -12.39280345 13.00783092 0 0 Z " fill="#42A89C" transform="translate(61,90)"/>
<path d="M0 0 C4.48883075 1.46302632 7.72735651 3.95481695 11.25 7 C11.81847656 7.48911865 12.38695312 7.9782373 12.97265625 8.48217773 C24.22265524 18.32433966 31.90712359 27.94176512 34 43 C34.25945071 47.99298374 34.23436162 52.97869046 34.1953125 57.9765625 C34.19157374 59.39716389 34.18873086 60.81776789 34.18673706 62.2383728 C34.17916839 65.94386142 34.1595797 69.64918861 34.1373291 73.35461426 C34.11672327 77.14914772 34.10770411 80.94370774 34.09765625 84.73828125 C34.07632606 92.15892707 34.04227392 99.57944076 34 107 C29.27635085 107 27.7011388 105.7758541 24 103 C24 102.67 24 102.34 24 102 C25.98 102 27.96 102 30 102 C29.98497946 94.58335548 29.94274683 87.16735678 29.86790943 79.75106049 C29.83394962 76.30547272 29.80857881 72.86031365 29.80444336 69.41455078 C30.48043228 44.9067362 30.48043228 44.9067362 21 23 C20.71125 21.989375 20.4225 20.97875 20.125 19.9375 C18.73502582 16.30812297 17.38443847 15.73349288 14 14 C12.1875 12.4375 12.1875 12.4375 11 11 C11 10.34 11 9.68 11 9 C10.29875 8.938125 9.5975 8.87625 8.875 8.8125 C4.87919913 7.68325193 2.97189322 5.90277942 0 3 C0 2.01 0 1.02 0 0 Z " fill="#EC8523" transform="translate(206,77)"/>
<path d="M0 0 C4.66858985 1.50061817 8.03642314 4.22523841 11.75 7.3125 C13.08460721 8.40137212 14.42059809 9.48855004 15.7578125 10.57421875 C16.45165039 11.13802246 17.14548828 11.70182617 17.86035156 12.28271484 C21.40163034 15.12495069 25.01109436 17.87607934 28.625 20.625 C29.34115479 21.17051514 30.05730957 21.71603027 30.79516602 22.27807617 C32.20281995 23.34984739 33.61077116 24.42122828 35.01904297 25.4921875 C39.49363914 28.89804231 43.95271072 32.32385578 48.40087891 35.76416016 C49.49063936 36.60635366 50.58150638 37.44711681 51.67333984 38.28662109 C61.76087766 46.05135168 71.98825851 53.98825851 81 63 C80.83657985 67.78003943 78.45747661 70.09242455 75.25 73.4375 C74.35023438 74.39140625 73.45046875 75.3453125 72.5234375 76.328125 C71.69070312 77.20984375 70.85796875 78.0915625 70 79 C68.29193509 80.97142293 66.64288002 82.9737813 65 85 C64 83 64 83 64.55859375 80.8359375 C64.84863281 80.02382812 65.13867188 79.21171875 65.4375 78.375 C65.72496094 77.55773437 66.01242188 76.74046875 66.30859375 75.8984375 C66.53675781 75.27195312 66.76492187 74.64546875 67 74 C67.66 74 68.32 74 69 74 C69 73.34 69 72.68 69 72 C70.66666667 70.33333333 72.33333333 68.66666667 74 67 C75.29519995 64.83379456 75.29519995 64.83379456 76 63 C74.68 63 73.36 63 72 63 C71.773125 62.4225 71.54625 61.845 71.3125 61.25 C69.67718931 58.44661024 67.52773272 56.99557846 65 55 C65 54.34 65 53.68 65 53 C63.515 52.505 63.515 52.505 62 52 C61.84917969 51.38382813 61.69835937 50.76765625 61.54296875 50.1328125 C60.50977577 46.07437103 56.41040875 44.10256393 53 42 C51.00779443 41.31039038 49.00894394 40.63920943 47 40 C45.64631404 38.68733482 44.31200404 37.35432675 43 36 C40.36777038 34.74563813 40.36777038 34.74563813 38 34 C38 33.01 38 32.02 38 31 C37.319375 30.7525 36.63875 30.505 35.9375 30.25 C31.5970289 28.40299102 27.48333623 26.48642652 24.125 23.12109375 C21.76415069 20.76458424 19.26878798 18.88557692 16.5625 16.9375 C15.63566406 16.26589844 14.70882812 15.59429687 13.75390625 14.90234375 C11.04999855 12.97036435 11.04999855 12.97036435 8.21875 11.4453125 C5.19423525 9.47511803 5.07167235 7.35790669 4 4 C1.99863756 2.57944932 1.99863756 2.57944932 0 2 C0 1.34 0 0.68 0 0 Z " fill="#EAB959" transform="translate(158,139)"/>
<path d="M0 0 C2.0625 0.4375 2.0625 0.4375 4 1 C-6 11 -6 11 -8.55859375 13.51171875 C-10.96000854 15.95924071 -13.15945078 18.50953215 -15.375 21.125 C-19.62617019 25.83215379 -22.52831694 28.68119333 -29.08203125 29.1484375 C-40.22586829 28.71907775 -49.57395666 19.51498197 -58 13 C-56.109375 12.42578125 -56.109375 12.42578125 -54 12 C-52.25 13.1875 -52.25 13.1875 -50 15 C-47.37247827 16.41481939 -44.69201775 17.71279734 -42 19 C-42 19.99 -42 20.98 -42 22 C-40.02 22.33 -38.04 22.66 -36 23 C-36 23.66 -36 24.32 -36 25 C-34.41632253 24.85795259 -32.83306682 24.71119847 -31.25 24.5625 C-30.36828125 24.48128906 -29.4865625 24.40007812 -28.578125 24.31640625 C-26.30649548 24.03761535 -24.20148177 23.61209423 -22 23 C-21.9175 22.38125 -21.835 21.7625 -21.75 21.125 C-21.5025 20.42375 -21.255 19.7225 -21 19 C-20.38125 18.71125 -19.7625 18.4225 -19.125 18.125 C-16.70089896 17.11809185 -16.70089896 17.11809185 -15.6875 14.125 C-13.94801807 10.90373717 -13.43647486 10.44626612 -10.375 8.875 C-6.85885696 7.43804588 -6.85885696 7.43804588 -6.375 4.875 C-6.189375 3.946875 -6.189375 3.946875 -6 3 C-3.5 1.8125 -3.5 1.8125 -1 1 C-0.67 0.67 -0.34 0.34 0 0 Z " fill="#ECA11A" transform="translate(218,224)"/>
<path d="M0 0 C0.66 0.33 1.32 0.66 2 1 C2.17528316 5.02027658 2.28118359 9.0395628 2.375 13.0625 C2.45041016 14.7630957 2.45041016 14.7630957 2.52734375 16.49804688 C2.69310082 25.97382579 2.69310082 25.97382579 -0.8203125 30.125 C-1.8474091 31.11840552 -2.90762747 32.07885711 -4 33 C-4.5451123 33.50144531 -5.09022461 34.00289062 -5.65185547 34.51953125 C-9.57457386 38 -9.57457386 38 -12 38 C-12.3125 35.1875 -12.3125 35.1875 -12 32 C-9.61107499 30.11400657 -8.08148442 29 -5 29 C-4.87625 28.443125 -4.7525 27.88625 -4.625 27.3125 C-4 25 -4 25 -3 22.75 C-1.8754059 19.65736622 -1.59113042 16.96547805 -1.375 13.6875 C-1.30023438 12.61886719 -1.22546875 11.55023438 -1.1484375 10.44921875 C-1.09945312 9.64097656 -1.05046875 8.83273438 -1 8 C-10.7550557 12.40121419 -10.7550557 12.40121419 -19 19 C-19 18.34 -19 17.68 -19 17 C-20.32 17.33 -21.64 17.66 -23 18 C-19.054527 13.88695864 -14.82963207 10.29978493 -10.375 6.75 C-9.37339844 5.93789063 -9.37339844 5.93789063 -8.3515625 5.109375 C-7.70703125 4.59375 -7.0625 4.078125 -6.3984375 3.546875 C-5.52711182 2.84836426 -5.52711182 2.84836426 -4.63818359 2.13574219 C-3 1 -3 1 0 0 Z " fill="#1F9A8A" transform="translate(135,34)"/>
<path d="M0 0 C3.06292627 1.33900214 4.81719146 2.68880386 6.90625 5.28125 C10.21025723 9.18406451 13.71840254 12.80617887 17.34375 16.40625 C17.9202832 16.97947998 18.49681641 17.55270996 19.09082031 18.14331055 C20.89193972 19.93084498 22.69552721 21.71585112 24.5 23.5 C39.36112814 38.19374617 39.36112814 38.19374617 45 45 C44.505 45.99 44.505 45.99 44 47 C38.25 44.25 38.25 44.25 36 42 C36 41.01 36 40.02 36 39 C35.1028125 38.814375 35.1028125 38.814375 34.1875 38.625 C32 38 32 38 29 36 C29 35.01 29 34.02 29 33 C28.42765625 32.7628125 27.8553125 32.525625 27.265625 32.28125 C24.5120708 30.72406762 22.83204366 28.87507203 20.75 26.5 C20.04359375 25.7059375 19.3371875 24.911875 18.609375 24.09375 C17 22 17 22 17 20 C16.41476563 19.91363281 15.82953125 19.82726562 15.2265625 19.73828125 C12.38458816 18.79594239 11.29297868 17.46457161 9.375 15.1875 C8.78460938 14.50042969 8.19421875 13.81335938 7.5859375 13.10546875 C6.10089421 11.13394577 5.01760794 9.24176008 4 7 C3.34 7 2.68 7 2 7 C1.01 8.485 1.01 8.485 0 10 C-0.103125 9.21625 -0.20625 8.4325 -0.3125 7.625 C-0.77595022 4.66954819 -0.77595022 4.66954819 -4 3 C-2.68 2.01 -1.36 1.02 0 0 Z " fill="#289587" transform="translate(143,69)"/>
<path d="M0 0 C0.66 0 1.32 0 2 0 C3.23411072 3.70233215 3.13538901 7.13721595 3.140625 10.9921875 C3.15895113 12.6002746 3.17852127 14.20834792 3.19921875 15.81640625 C3.22819032 18.34675412 3.25000023 20.87621372 3.25048828 23.40673828 C3.25382778 25.85268594 3.28839804 28.2965947 3.328125 30.7421875 C3.3210553 31.49442596 3.3139856 32.24666443 3.30670166 33.021698 C3.39949796 37.03920842 3.82009023 38.7843904 6.42871094 41.91064453 C7.27723633 42.60013184 8.12576172 43.28961914 9 44 C10.8125 45.6875 10.8125 45.6875 12 47 C12 47.66 12 48.32 12 49 C12.99 49.33 13.98 49.66 15 50 C16.175625 51.2065625 16.175625 51.2065625 17.375 52.4375 C19.76217812 55.12999984 19.76217812 55.12999984 22.6875 55.9375 C25 57 25 57 26.3125 60.125 C26.539375 61.07375 26.76625 62.0225 27 63 C24.22569117 61.68985664 21.80756086 60.23157227 19.35546875 58.390625 C18.33936523 57.62878906 18.33936523 57.62878906 17.30273438 56.8515625 C16.60470703 56.32304687 15.90667969 55.79453125 15.1875 55.25 C14.15786133 54.48042969 14.15786133 54.48042969 13.10742188 53.6953125 C11.05372778 52.14872736 9.01169455 50.60114009 7 49 C6.41033951 48.61024994 5.82067902 48.22049988 5.21315002 47.81893921 C2.39602269 45.78170594 0.34424568 44.23790992 -0.60990906 40.8067627 C-0.80924259 38.17962273 -0.78815896 35.64040755 -0.68359375 33.0078125 C-0.67368912 32.06187225 -0.66378448 31.11593201 -0.65357971 30.1413269 C-0.61454343 27.134275 -0.52674483 24.1309391 -0.4375 21.125 C-0.40237209 19.08078207 -0.37043567 17.03650664 -0.34179688 14.9921875 C-0.26481676 9.99337042 -0.14411065 4.99731409 0 0 Z " fill="#EA8521" transform="translate(203,116)"/>
<path d="M0 0 C4.48883075 1.46302632 7.72735651 3.95481695 11.25 7 C11.81847656 7.48911865 12.38695312 7.9782373 12.97265625 8.48217773 C24.22265524 18.32433966 31.90712359 27.94176512 34 43 C34.25945071 47.99298374 34.23436162 52.97869046 34.1953125 57.9765625 C34.19157374 59.39716389 34.18873086 60.81776789 34.18673706 62.2383728 C34.17916839 65.94386142 34.1595797 69.64918861 34.1373291 73.35461426 C34.11672327 77.14914772 34.10770411 80.94370774 34.09765625 84.73828125 C34.07632606 92.15892707 34.04227392 99.57944076 34 107 C32.68 107 31.36 107 30 107 C31.485 106.505 31.485 106.505 33 106 C33 85.87 33 65.74 33 45 C32.34 45 31.68 45 31 45 C30.81824219 44.16855469 30.63648438 43.33710937 30.44921875 42.48046875 C30.19785156 41.39378906 29.94648438 40.30710938 29.6875 39.1875 C29.44386719 38.10855469 29.20023438 37.02960938 28.94921875 35.91796875 C27.9873987 32.96126267 27.28159212 31.97737984 25 30 C22.82874085 26.51282621 21.2001708 23.69392543 20.0625 19.75 C18.7173675 16.26848059 17.25629461 15.66785822 14 14 C12.1875 12.4375 12.1875 12.4375 11 11 C11 10.34 11 9.68 11 9 C10.29875 8.938125 9.5975 8.87625 8.875 8.8125 C4.87919913 7.68325193 2.97189322 5.90277942 0 3 C0 2.01 0 1.02 0 0 Z " fill="#EAAD68" transform="translate(206,77)"/>
<path d="M0 0 C0.66 0.33 1.32 0.66 2 1 C0.1875 3.5 0.1875 3.5 -2 6 C-2.99 6 -3.98 6 -5 6 C-3.68 6 -2.36 6 -1 6 C-1 6.99 -1 7.98 -1 9 C-2.051875 9.391875 -3.10375 9.78375 -4.1875 10.1875 C-7.09698695 11.41100658 -8.29238017 12.29238017 -10.625 14.625 C-13 17 -13 17 -15.5625 17.5 C-18.20106114 17.76588186 -18.20106114 17.76588186 -19.7109375 20.203125 C-22.46936609 23.57349167 -25.50686217 25.78357625 -29.0625 28.25 C-29.68705078 28.69601563 -30.31160156 29.14203125 -30.95507812 29.6015625 C-33.61220828 31.47318032 -35.90015678 32.96671893 -39 34 C-39.33 34.99 -39.66 35.98 -40 37 C-42.64 37.33 -45.28 37.66 -48 38 C-40.72785945 30.24305008 -31.90520722 24.1392985 -23.4128418 17.80151367 C-15.55623744 11.93612502 -7.77835714 5.96854137 0 0 Z " fill="#2F9D91" transform="translate(110,52)"/>
<path d="M0 0 C0.99 0.33 1.98 0.66 3 1 C3.0462659 13.09113635 3.08183989 25.18225177 3.10362434 37.27345848 C3.11407784 42.8874155 3.12826553 48.50131212 3.15087891 54.11523438 C3.17255154 59.52926861 3.18455681 64.94324462 3.18975449 70.35731888 C3.1934603 72.4266616 3.20069644 74.49600101 3.21146011 76.56531906 C3.22590091 79.45556365 3.22798106 82.3455652 3.22705078 85.23583984 C3.23424133 86.09826797 3.24143188 86.96069611 3.24884033 87.84925842 C3.22810432 93.77189568 3.22810432 93.77189568 1 96 C0.67 65.31 0.34 34.62 0 3 C-1.65 3.66 -3.3 4.32 -5 5 C-3.35 3.35 -1.7 1.7 0 0 Z " fill="#699080" transform="translate(134,134)"/>
<path d="M0 0 C5.4078462 2.03477042 9.26125685 4.47366924 13.5 8.375 C14.04914063 8.84421875 14.59828125 9.3134375 15.1640625 9.796875 C18.95787075 13.24752471 18.95787075 13.24752471 19.140625 16.51171875 C17.65747038 19.74723072 15.71239474 21.86946998 13.25 24.4375 C12.35023438 25.39140625 11.45046875 26.3453125 10.5234375 27.328125 C9.69070312 28.20984375 8.85796875 29.0915625 8 30 C6.29193509 31.97142293 4.64288002 33.9737813 3 36 C2 34 2 34 2.55859375 31.8359375 C2.99365234 30.61777344 2.99365234 30.61777344 3.4375 29.375 C3.72496094 28.55773437 4.01242188 27.74046875 4.30859375 26.8984375 C4.65083984 25.95871094 4.65083984 25.95871094 5 25 C5.66 25 6.32 25 7 25 C7 24.34 7 23.68 7 23 C8.66666667 21.33333333 10.33333333 19.66666667 12 18 C13.29519995 15.83379456 13.29519995 15.83379456 14 14 C12.68 14 11.36 14 10 14 C9.773125 13.4225 9.54625 12.845 9.3125 12.25 C7.67718931 9.44661024 5.52773272 7.99557846 3 6 C3 5.34 3 4.68 3 4 C2.01 3.67 1.02 3.34 0 3 C0 2.01 0 1.02 0 0 Z " fill="#EBAC36" transform="translate(220,188)"/>
<path d="M0 0 C5.4051771 0.37710538 7.42372056 2.03709576 11 6 C11.99 6.66 12.98 7.32 14 8 C14.12375 8.639375 14.2475 9.27875 14.375 9.9375 C14.83353417 12.29215298 14.83353417 12.29215298 17.5625 13.5 C18.366875 13.995 19.17125 14.49 20 15 C20 16.32 20 17.64 20 19 C20.66 19 21.32 19 22 19 C25.11422047 24.9734125 25.401891 29.85722824 25.29296875 36.52734375 C25.28872391 37.51626114 25.28447906 38.50517853 25.28010559 39.52406311 C25.26340129 42.66216009 25.22576415 45.79959928 25.1875 48.9375 C25.17244251 51.07355839 25.15875597 53.20962691 25.14648438 55.34570312 C25.11352493 60.56402402 25.06340838 65.781965 25 71 C24.67 71 24.34 71 24 71 C23.98541748 69.89599854 23.97083496 68.79199707 23.95581055 67.65454102 C23.89743343 63.52239075 23.82020607 59.39076316 23.73754883 55.2590332 C23.70448362 53.47754457 23.67639558 51.69595582 23.65356445 49.91430664 C23.61967693 47.33957614 23.56734857 44.7657482 23.51171875 42.19140625 C23.50532883 41.40665421 23.4989389 40.62190216 23.49235535 39.81336975 C23.25150255 30.56446303 20.57140216 23.75894891 14.3125 17 C13.78301758 16.40550049 13.25353516 15.81100098 12.70800781 15.19848633 C11.15088248 13.45415657 9.57713901 11.72622434 8 10 C6.41450631 8.23110065 4.83079876 6.46059628 3.25 4.6875 C2.61578125 3.99011719 1.9815625 3.29273437 1.328125 2.57421875 C0 1 0 1 0 0 Z " fill="#EEAC63" transform="translate(178,86)"/>
<path d="M0 0 C2.475 0.495 2.475 0.495 5 1 C5 13.87 5 26.74 5 40 C4.34 40 3.68 40 3 40 C1.96010381 26.89730796 2.15945529 14.11249742 3 1 C-0.0109362 3.0072908 -0.63016497 3.83884224 -2 7 C-2.66 7 -3.32 7 -4 7 C-4.309375 8.11375 -4.309375 8.11375 -4.625 9.25 C-6.40858708 12.81717417 -8.63790119 13.94157216 -12 16 C-15.29698048 18.80853893 -17.12243309 22.46425791 -19.25 26.1875 C-21.78083027 28.80871706 -24.51543172 29.21104114 -28 30 C-23.10265596 24.08004578 -17.78437691 18.70064505 -12.3125 13.3125 C-10.61874368 11.64430981 -8.92724481 9.97382371 -7.23828125 8.30078125 C-6.49618408 7.57028564 -5.75408691 6.83979004 -4.98950195 6.0871582 C-3.14435803 4.15144396 -1.55149351 2.17466703 0 0 Z " fill="#096754" transform="translate(138,73)"/>
<path d="M0 0 C0.99 0 1.98 0 3 0 C2.42008587 3.36937448 1.39650321 4.96552427 -1.0625 7.3125 C-1.69414063 7.9209375 -2.32578125 8.529375 -2.9765625 9.15625 C-4.92296405 10.92980508 -6.91941704 12.62145815 -8.9375 14.3125 C-13.00766457 17.78761127 -16.13799184 21.78404885 -19.3359375 26.05859375 C-19.88507813 26.69925781 -20.43421875 27.33992188 -21 28 C-21.66 28 -22.32 28 -23 28 C-23.2165625 29.7015625 -23.2165625 29.7015625 -23.4375 31.4375 C-24 35 -24 35 -25 36 C-25.16029688 38.95529504 -25.25957328 41.88982457 -25.31640625 44.84765625 C-25.33718735 45.7340831 -25.35796844 46.62050995 -25.37937927 47.53379822 C-25.444974 50.376617 -25.50380552 53.21953117 -25.5625 56.0625 C-25.6056758 57.98503606 -25.64928978 59.90756234 -25.69335938 61.83007812 C-25.80066543 66.55328668 -25.90190451 71.27659153 -26 76 C-26.33 76 -26.66 76 -27 76 C-27.19250668 70.37697872 -27.37119078 64.75375155 -27.53710938 59.12988281 C-27.59548822 57.21700279 -27.65763491 55.30423387 -27.72363281 53.39160156 C-27.81787368 50.64148183 -27.89853224 47.89124652 -27.9765625 45.140625 C-28.00875885 44.28631897 -28.0409552 43.43201294 -28.0741272 42.55181885 C-28.09429901 41.75129089 -28.11447083 40.95076294 -28.13525391 40.12597656 C-28.15746002 39.42426331 -28.17966614 38.72255005 -28.20254517 37.99957275 C-27.9628238 35.63298799 -27.11600144 34.08301926 -26 32 C-25.87625 31.195625 -25.7525 30.39125 -25.625 29.5625 C-24.82039624 26.26362457 -23.3097495 24.44973432 -21 22 C-20.34 22 -19.68 22 -19 22 C-18.773125 21.443125 -18.54625 20.88625 -18.3125 20.3125 C-16.64333462 17.37158957 -14.3864325 15.3864325 -12 13 C-11.46375 12.071875 -10.9275 11.14375 -10.375 10.1875 C-9.92125 9.465625 -9.4675 8.74375 -9 8 C-8.01 8 -7.02 8 -6 8 C-6 7.34 -6 6.68 -6 6 C-2.53846154 3 -2.53846154 3 0 3 C0 2.01 0 1.02 0 0 Z " fill="#299E8E" transform="translate(107,82)"/>
<path d="M0 0 C0.66 0.33 1.32 0.66 2 1 C-4.91268191 11.27027027 -4.91268191 11.27027027 -11.4375 12.8125 C-15.63088863 14.21029621 -16.88135683 15.79886345 -19.51953125 19.1796875 C-21.73486201 21.90355065 -24.19363599 23.89522699 -27 26 C-27.66 26 -28.32 26 -29 26 C-29.3403125 27.1446875 -29.3403125 27.1446875 -29.6875 28.3125 C-31.33017267 31.67606784 -32.6313561 32.42796618 -36 34 C-39.4883132 35.14272329 -42.32718141 36 -46 36 C-34.48950073 26.25236999 -22.5570394 17.12307623 -10.46777344 8.10986328 C-6.92718652 5.46647502 -3.43165779 2.78492229 0 0 Z " fill="#326451" transform="translate(127,139)"/>
<path d="M0 0 C0.66 0.33 1.32 0.66 2 1 C1.8125 3.8125 1.8125 3.8125 1 7 C-1.1875 8.4375 -1.1875 8.4375 -4 10 C-5.95094312 11.37698144 -7.88832844 12.77334982 -9.8125 14.1875 C-10.78832031 14.90292969 -11.76414062 15.61835938 -12.76953125 16.35546875 C-13.50558594 16.89816406 -14.24164063 17.44085938 -15 18 C-14.649375 18.9075 -14.29875 19.815 -13.9375 20.75 C-13.03531221 23.87758436 -12.86618493 25.05208081 -14 28 C-15.20254524 26.76446724 -16.38666232 25.51097661 -17.5625 24.25 C-18.22378906 23.55390625 -18.88507812 22.8578125 -19.56640625 22.140625 C-21 20 -21 20 -21.09765625 18.07421875 C-19.38907752 14.84555218 -16.67067776 12.81857297 -13.875 10.5625 C-13.2869458 10.07676514 -12.6988916 9.59103027 -12.09301758 9.09057617 C-8.17952765 5.88254074 -4.19699188 2.83052941 0 0 Z " fill="#2D5D4D" transform="translate(67,185)"/>
<path d="M0 0 C3.99455527 0.61454696 6.74466336 2.70646737 10 5 C9.01 5.495 9.01 5.495 8 6 C6.02 5.01 4.04 4.02 2 3 C2 7.95 2 12.9 2 18 C3.32 18.33 4.64 18.66 6 19 C6 19.66 6 20.32 6 21 C7.32 21 8.64 21 10 21 C10.144375 21.86625 10.28875 22.7325 10.4375 23.625 C12.45374753 27.98009467 15.00094829 29.2181951 19.1015625 31.5078125 C19.72804687 32.00023437 20.35453125 32.49265625 21 33 C21 34.32 21 35.64 21 37 C22.485 37.495 22.485 37.495 24 38 C25.1875 41.0625 25.1875 41.0625 26 44 C21.03430843 40.12433829 17.09053738 35.7722936 13 31 C10.84288842 28.65255504 9.21747339 27.12199727 6.4375 25.5625 C3.56542854 23.72142855 2.57026178 21.99097482 1 19 C0.34 18.01 -0.32 17.02 -1 16 C-1.61094248 10.656842 -0.89727967 5.27151803 0 0 Z " fill="#F1841C" transform="translate(152,42)"/>
<path d="M0 0 C0.33 0 0.66 0 1 0 C1.28515625 2.23828125 1.28515625 2.23828125 1 5 C-6.35557987 13.24253129 -21.86995207 24.97293277 -32.9375 26.37109375 C-41.07655765 26.54757842 -41.07655765 26.54757842 -43.890625 24.87890625 C-45.25 23.5 -45.25 23.5 -47 21 C-44.4516326 21.4247279 -42.34028275 21.81339333 -40.0625 23.0625 C-35.8345893 24.98427759 -31.38323845 24.03135022 -27 23 C-26.67 22.01 -26.34 21.02 -26 20 C-24.68 20 -23.36 20 -22 20 C-22 19.34 -22 18.68 -22 18 C-20.68 18 -19.36 18 -18 18 C-18 16.68 -18 15.36 -18 14 C-16.35 13.34 -14.7 12.68 -13 12 C-13 11.34 -13 10.68 -13 10 C-11.02 9.67 -9.04 9.34 -7 9 C-6.9071875 8.071875 -6.9071875 8.071875 -6.8125 7.125 C-6.544375 6.42375 -6.27625 5.7225 -6 5 C-4.34795544 4.29788106 -2.68076231 3.63028587 -1 3 C-0.67 2.01 -0.34 1.02 0 0 Z " fill="#3F6B5B" transform="translate(134,226)"/>
<path d="M0 0 C5.23861153 1.04772231 7.66184424 2.08008747 12 5 C12.9375 7.25 12.9375 7.25 13 9 C12.01 8.67 11.02 8.34 10 8 C10 7.34 10 6.68 10 6 C8.35 5.67 6.7 5.34 5 5 C4.67 4.01 4.34 3.02 4 2 C3.01 2 2.02 2 1 2 C1.10860846 10.55529037 1.22143933 19.11051115 1.33933926 27.66567802 C1.39398706 31.64021423 1.44729872 35.61475806 1.49731445 39.58935547 C1.75746802 63.81217962 1.75746802 63.81217962 3 88 C2.01 87.67 1.02 87.34 0 87 C0 58.29 0 29.58 0 0 Z " fill="#F0A316" transform="translate(151,139)"/>
<path d="M0 0 C2.81724562 2.81724562 2.40582036 4.87132539 2.625 8.8125 C2.66294678 9.47451416 2.70089355 10.13652832 2.73999023 10.81860352 C3.07596156 17.21120075 3.0971319 23.60008703 3 30 C1.21362305 30.6262207 1.21362305 30.6262207 -1 31 C-3.56599373 29.48386428 -5.82600723 27.97372637 -8.1875 26.1875 C-9.14946289 25.49043945 -9.14946289 25.49043945 -10.13085938 24.77929688 C-14.84527726 21.30944549 -14.84527726 21.30944549 -16 19 C-13.69 19.33 -11.38 19.66 -9 20 C-9 20.66 -9 21.32 -9 22 C-6.36 22.99 -3.72 23.98 -1 25 C-1.33 25.99 -1.66 26.98 -2 28 C-1.34 28 -0.68 28 0 28 C0 18.76 0 9.52 0 0 Z " fill="#69BAAD" transform="translate(188,116)"/>
<path d="M0 0 C3.04790975 1.33445707 4.80036253 2.66891652 6.87890625 5.25 C12.49357589 11.88265647 18.77638224 17.88142806 24.9375 24 C26.20661373 25.2640885 27.47549589 26.52840956 28.74414062 27.79296875 C31.8267632 30.86466724 34.91250428 33.93320008 38 37 C37.505 37.99 37.505 37.99 37 39 C36.25314941 38.2479126 35.50629883 37.4958252 34.73681641 36.72094727 C31.96997833 33.93603358 29.1998521 31.15441067 26.42871094 28.3737793 C25.22891468 27.16894871 24.03001674 25.96322288 22.83203125 24.7565918 C21.11172077 23.02417648 19.38822456 21.2949873 17.6640625 19.56640625 C17.12754059 19.02472305 16.59101868 18.48303986 16.03823853 17.92494202 C13.28444983 15.11251814 13.28444983 15.11251814 10 13 C9.67 13.66 9.34 14.32 9 15 C8.49339844 14.13375 8.49339844 14.13375 7.9765625 13.25 C7.30753906 12.13625 7.30753906 12.13625 6.625 11 C6.18414062 10.2575 5.74328125 9.515 5.2890625 8.75 C4.65097656 7.88375 4.65097656 7.88375 4 7 C3.34 7 2.68 7 2 7 C1.01 8.485 1.01 8.485 0 10 C-0.103125 9.21625 -0.20625 8.4325 -0.3125 7.625 C-0.77595022 4.66954819 -0.77595022 4.66954819 -4 3 C-2.68 2.01 -1.36 1.02 0 0 Z " fill="#71BAAF" transform="translate(143,69)"/>
<path d="M0 0 C3.93673644 1.31224548 6.22719294 2.91910327 9 6 C4.545 5.01 4.545 5.01 0 4 C0 34.03 0 64.06 0 95 C-0.33 95 -0.66 95 -1 95 C-1.02312166 82.76119671 -1.04091418 70.52239857 -1.05181217 58.28357792 C-1.05704139 52.60123488 -1.06413973 46.91890673 -1.07543945 41.23657227 C-1.08626696 35.75770864 -1.09227654 30.27885938 -1.09487724 24.79998589 C-1.09673174 22.70470389 -1.10035282 20.60942272 -1.10573006 18.5141468 C-1.11293868 15.59022416 -1.11399102 12.66636167 -1.11352539 9.74243164 C-1.11712067 8.8670575 -1.12071594 7.99168335 -1.12442017 7.08978271 C-1.11405216 1.11405216 -1.11405216 1.11405216 0 0 Z " fill="#F8D282" transform="translate(149,133)"/>
<path d="M0 0 C0.33 0 0.66 0 1 0 C1.01030746 1.12308563 1.02061493 2.24617126 1.03123474 3.40328979 C1.12883997 13.96891437 1.23156164 24.53447835 1.33933926 35.1000042 C1.39458778 40.53230607 1.44801086 45.96461331 1.49731445 51.39697266 C1.54492954 56.63598557 1.59727131 61.87493159 1.65294075 67.1138649 C1.67337726 69.11619534 1.69208816 71.11854414 1.70907402 73.12090683 C1.73308935 75.91774912 1.7631478 78.71446425 1.79467773 81.51123047 C1.8004332 82.34560638 1.80618866 83.1799823 1.81211853 84.03964233 C1.76414635 88.15240869 1.76414635 88.15240869 3 92 C3.969375 92.45375 4.93875 92.9075 5.9375 93.375 C9.07187022 95.03813522 9.8759417 95.74023094 11 99 C7.12110481 97.20974068 3.03770253 95.03770253 0 92 C-0.09522418 89.13908182 -0.12553326 86.30236379 -0.11352539 83.44116211 C-0.11367142 82.54368759 -0.11381744 81.64621307 -0.1139679 80.72154236 C-0.11326842 77.74011866 -0.10547441 74.7587566 -0.09765625 71.77734375 C-0.09579219 69.71611058 -0.09436823 67.65487696 -0.09336853 65.59364319 C-0.08954237 60.1569599 -0.07971126 54.72030314 -0.06866455 49.28363037 C-0.05845253 43.74052286 -0.05387136 38.19741108 -0.04882812 32.65429688 C-0.03808908 21.76951957 -0.02101149 10.88476198 0 0 Z " fill="#E6B148" transform="translate(149,137)"/>
<path d="M0 0 C5.04200067 1.56408884 8.56400082 4.63097314 12.5625 7.9375 C13.87593679 9.00956228 15.18972854 10.08118985 16.50390625 11.15234375 C17.11121582 11.65362793 17.71852539 12.15491211 18.34423828 12.67138672 C19.67243941 13.73715943 21.06070988 14.72787223 22.46484375 15.69140625 C22.97144531 16.12324219 23.47804687 16.55507812 24 17 C24 17.99 24 18.98 24 20 C24.99 20.33 25.98 20.66 27 21 C26.67 22.32 26.34 23.64 26 25 C25.17822266 24.13568359 25.17822266 24.13568359 24.33984375 23.25390625 C21.88234719 20.88666833 19.33083345 18.93023933 16.5625 16.9375 C15.63566406 16.26589844 14.70882812 15.59429687 13.75390625 14.90234375 C11.04999855 12.97036435 11.04999855 12.97036435 8.21875 11.4453125 C5.19423525 9.47511803 5.07167235 7.35790669 4 4 C1.99863756 2.57944932 1.99863756 2.57944932 0 2 C0 1.34 0 0.68 0 0 Z " fill="#E3A936" transform="translate(158,139)"/>
<path d="M0 0 C2.23526219 4.02833915 2.32864688 7.63606136 2.37890625 12.16015625 C2.39590073 12.94643906 2.4128952 13.73272186 2.43040466 14.54283142 C2.48342353 17.04930649 2.52377947 19.5557665 2.5625 22.0625 C2.60647992 24.57272021 2.65321881 27.08281489 2.70530701 29.59288025 C2.73717023 31.1531377 2.76408933 32.71350567 2.78553772 34.27394104 C2.84576665 37.43325099 2.99382899 39.98148698 4 43 C4.61875 43.268125 5.2375 43.53625 5.875 43.8125 C8.92295549 45.51576924 9.64076848 47.8737675 11 51 C6.71063894 48.95338623 2.9555225 46.80005429 0 43 C-0.93133455 39.64503396 -0.82103663 36.46815498 -0.68359375 33.0078125 C-0.67368912 32.06187225 -0.66378448 31.11593201 -0.65357971 30.1413269 C-0.61454343 27.134275 -0.52674483 24.1309391 -0.4375 21.125 C-0.40237209 19.08078207 -0.37043567 17.03650664 -0.34179688 14.9921875 C-0.26481676 9.99337042 -0.14411065 4.99731409 0 0 Z " fill="#E19442" transform="translate(203,116)"/>
<path d="M0 0 C4.14298667 0.59834725 7.18194377 2.00664285 10.8125 4.0625 C11.78832031 4.61035156 12.76414063 5.15820312 13.76953125 5.72265625 C14.50558594 6.14417969 15.24164063 6.56570312 16 7 C16 7.99 16 8.98 16 10 C18.97 10.495 18.97 10.495 22 11 C22 11.99 22 12.98 22 14 C23.03060547 13.96519531 23.03060547 13.96519531 24.08203125 13.9296875 C25.43361328 13.90261719 25.43361328 13.90261719 26.8125 13.875 C27.70582031 13.85179687 28.59914062 13.82859375 29.51953125 13.8046875 C32 14 32 14 35 16 C26.60107324 17.67978535 20.55702897 15.89690184 13.4375 11.15234375 C11.95002633 10.09229002 10.47083479 9.02052209 9 7.9375 C8.23816406 7.39544922 7.47632813 6.85339844 6.69140625 6.29492188 C1.14951546 2.29903092 1.14951546 2.29903092 0 0 Z " fill="#E9B34E" transform="translate(160,236)"/>
<path d="M0 0 C0.33 0.99 0.66 1.98 1 3 C-1.98386402 7.0369925 -5.40127168 10.49853461 -9 14 C-12.43145346 17.43145346 -12.1339645 21.85423511 -12.31640625 26.51953125 C-12.35830078 27.54111328 -12.40019531 28.56269531 -12.44335938 29.61523438 C-12.48267578 30.67033203 -12.52199219 31.72542969 -12.5625 32.8125 C-12.60568359 33.88693359 -12.64886719 34.96136719 -12.69335938 36.06835938 C-12.79910983 38.71212082 -12.90120233 41.3559711 -13 44 C-13.33 44 -13.66 44 -14 44 C-14.11668418 39.47938558 -14.18741645 34.95916153 -14.25 30.4375 C-14.28351563 29.16068359 -14.31703125 27.88386719 -14.3515625 26.56835938 C-14.44135932 17.92541584 -13.79639831 13.4821993 -8.18359375 6.85546875 C-7.60738281 6.30503906 -7.03117187 5.75460938 -6.4375 5.1875 C-5.85871094 4.62417969 -5.27992187 4.06085938 -4.68359375 3.48046875 C-3 2 -3 2 0 0 Z " fill="#5C7B6F" transform="translate(109,103)"/>
<path d="M0 0 C0.66 0.33 1.32 0.66 2 1 C2.14547545 5.06212212 2.23413226 9.12357287 2.3125 13.1875 C2.3753418 14.91323242 2.3753418 14.91323242 2.43945312 16.67382812 C2.5608921 25.05311763 2.5608921 25.05311763 0.86474609 27.91650391 C-0.51953125 29.30078125 -0.51953125 29.30078125 -3 31 C-3.25113312 26.4796039 -3.25113312 26.4796039 -2.00439453 24.09863281 C-0.87852382 21.74618153 -0.76768952 20.2617333 -0.8046875 17.671875 C-0.81113281 16.87265625 -0.81757813 16.0734375 -0.82421875 15.25 C-0.84097656 14.425 -0.85773438 13.6 -0.875 12.75 C-0.88402344 11.90953125 -0.89304688 11.0690625 -0.90234375 10.203125 C-0.92584183 8.13529396 -0.96171092 6.06761005 -1 4 C-1.928125 4.495 -2.85625 4.99 -3.8125 5.5 C-7 7 -7 7 -10 7 C-8.90081184 6.01524786 -7.7954398 5.03739527 -6.6875 4.0625 C-6.07261719 3.51722656 -5.45773438 2.97195312 -4.82421875 2.41015625 C-3 1 -3 1 0 0 Z " fill="#75BFB7" transform="translate(135,34)"/>
<path d="M0 0 C0 3.10551666 -0.5393715 4.35261084 -2 7 C-2.66 7 -3.32 7 -4 7 C-4.309375 8.11375 -4.309375 8.11375 -4.625 9.25 C-6.40858708 12.81717417 -8.63790119 13.94157216 -12 16 C-15.29698048 18.80853893 -17.12243309 22.46425791 -19.25 26.1875 C-21.78083027 28.80871706 -24.51543172 29.21104114 -28 30 C-23.10265596 24.08004578 -17.78437691 18.70064505 -12.3125 13.3125 C-10.61874368 11.64430981 -8.92724481 9.97382371 -7.23828125 8.30078125 C-6.49618408 7.57028564 -5.75408691 6.83979004 -4.98950195 6.0871582 C-3.14435803 4.15144396 -1.55149351 2.17466703 0 0 Z " fill="#466A5D" transform="translate(138,73)"/>
<path d="M0 0 C0 3 0 3 -1 6 C-1.66 6 -2.32 6 -3 6 C-3 7.65 -3 9.3 -3 11 C-3.61875 11.20625 -4.2375 11.4125 -4.875 11.625 C-7.85833097 13.55539063 -8.0446881 15.65640837 -9 19 C-9.66 19.99 -10.32 20.98 -11 22 C-11.66 22 -12.32 22 -13 22 C-13.33 22.66 -13.66 23.32 -14 24 C-13.23418883 14.0444548 -6.59503285 6.92232976 0 0 Z " fill="#249789" transform="translate(61,90)"/>
<path d="M0 0 C10.40344448 4.9255246 22.80798471 15.61596942 28 26 C24.85244117 24.59598688 22.62854507 22.92153964 20.13671875 20.55078125 C19.41419922 19.86693359 18.69167969 19.18308594 17.94726562 18.47851562 C17.20154297 17.76373047 16.45582031 17.04894531 15.6875 16.3125 C14.95337891 15.61705078 14.21925781 14.92160156 13.46289062 14.20507812 C2.93449404 4.19983168 2.93449404 4.19983168 0 1 C0 0.67 0 0.34 0 0 Z " fill="#F1BC7D" transform="translate(152,63)"/>
<path d="M0 0 C0.33 0 0.66 0 1 0 C1 20.13 1 40.26 1 61 C-4 61 -4 61 -6.3125 59 C-6.869375 58.34 -7.42625 57.68 -8 57 C-6.35 57.33 -4.7 57.66 -3 58 C-3 58.66 -3 59.32 -3 60 C-2.01 60 -1.02 60 0 60 C0 40.2 0 20.4 0 0 Z " fill="#E59A4D" transform="translate(238,122)"/>
<path d="M0 0 C0.66 0.33 1.32 0.66 2 1 C-4.84501845 11.1697417 -4.84501845 11.1697417 -11.5625 12.9375 C-15.55366004 14.17113129 -16.74339649 15.56996267 -19 19 C-20.32 18.67 -21.64 18.34 -23 18 C-15.42482971 11.87830483 -7.73533081 5.91667937 0 0 Z " fill="#356450" transform="translate(127,139)"/>
<path d="M0 0 C0.33 1.32 0.66 2.64 1 4 C0.34 4 -0.32 4 -1 4 C-1.144375 5.134375 -1.28875 6.26875 -1.4375 7.4375 C-2 11 -2 11 -3 12 C-3.16029688 14.95529504 -3.25957328 17.88982457 -3.31640625 20.84765625 C-3.33718735 21.7340831 -3.35796844 22.62050995 -3.37937927 23.53379822 C-3.444974 26.376617 -3.50380552 29.21953117 -3.5625 32.0625 C-3.6056758 33.98503606 -3.64928978 35.90756234 -3.69335938 37.83007812 C-3.80066543 42.55328668 -3.90190451 47.27659153 -4 52 C-4.33 52 -4.66 52 -5 52 C-5.19250668 46.37697872 -5.37119078 40.75375155 -5.53710938 35.12988281 C-5.59548822 33.21700279 -5.65763491 31.30423387 -5.72363281 29.39160156 C-5.81787368 26.64148183 -5.89853224 23.89124652 -5.9765625 21.140625 C-6.02485703 19.85916595 -6.02485703 19.85916595 -6.0741272 18.55181885 C-6.09429901 17.75129089 -6.11447083 16.95076294 -6.13525391 16.12597656 C-6.15746002 15.42426331 -6.17966614 14.72255005 -6.20254517 13.99957275 C-5.96271283 11.63189239 -5.1164206 10.08437302 -4 8 C-3.855625 7.154375 -3.71125 6.30875 -3.5625 5.4375 C-2.93304287 2.70985244 -2.12397993 1.75459211 0 0 Z " fill="#1C9A8C" transform="translate(85,106)"/>
<path d="M0 0 C0.99 0.33 1.98 0.66 3 1 C-1.06773989 5.32448087 -5.53656263 8.79990263 -10.3125 12.3125 C-11.42334961 13.13717773 -11.42334961 13.13717773 -12.55664062 13.97851562 C-14.36839676 15.32272179 -16.182859 16.66308744 -18 18 C-18.33 16.68 -18.66 15.36 -19 14 C-18.2575 13.5875 -17.515 13.175 -16.75 12.75 C-13.94971894 11.11678763 -13.94971894 11.11678763 -11.875 8.8125 C-10 7 -10 7 -7 7 C-7 6.34 -7 5.68 -7 5 C-6.34 5 -5.68 5 -5 5 C-4.67 4.34 -4.34 3.68 -4 3 C-2.68 3 -1.36 3 0 3 C0 2.01 0 1.02 0 0 Z " fill="#325B50" transform="translate(125,123)"/>
<path d="M0 0 C0.99 0.33 1.98 0.66 3 1 C3.33 1.99 3.66 2.98 4 4 C3.01 4.66 2.02 5.32 1 6 C0.48865427 9.05888852 0.17709979 11.91687943 0 15 C-0.05430176 15.92312988 -0.10860352 16.84625977 -0.16455078 17.79736328 C-0.31782999 20.71853968 -0.44450466 23.63969747 -0.5625 26.5625 C-0.60568359 27.57119141 -0.64886719 28.57988281 -0.69335938 29.61914062 C-0.79829618 32.07932575 -0.90045701 34.53959175 -1 37 C-1.33 37 -1.66 37 -2 37 C-2.04950925 32.37355096 -2.08577116 27.74725682 -2.10986328 23.12060547 C-2.11990887 21.54733595 -2.13354781 19.97408504 -2.15087891 18.40087891 C-2.17519096 16.13699748 -2.18649747 13.87336334 -2.1953125 11.609375 C-2.20563507 10.90818542 -2.21595764 10.20699585 -2.22659302 9.48455811 C-2.22743257 5.81436524 -2.02112595 3.11910787 0 0 Z " fill="#17917E" transform="translate(145,75)"/>
<path d="M0 0 C0.556875 0.28875 1.11375 0.5775 1.6875 0.875 C3.93403288 2.03018156 3.93403288 2.03018156 6.15625 2.71875 C10.11236399 4.50117498 13.35922327 7.02099802 16.8125 9.625 C17.50537109 10.140625 18.19824219 10.65625 18.91210938 11.1875 C20.61173663 12.45342926 22.30637435 13.72605265 24 15 C23.01 15.495 23.01 15.495 22 16 C19.375 15.0625 19.375 15.0625 17 14 C17 13.34 17 12.68 17 12 C15.68 11.67 14.36 11.34 13 11 C13 10.34 13 9.68 13 9 C12.21625 8.855625 11.4325 8.71125 10.625 8.5625 C8 8 8 8 6 7 C6 6.34 6 5.68 6 5 C5.195625 4.731875 4.39125 4.46375 3.5625 4.1875 C2.716875 3.795625 1.87125 3.40375 1 3 C0.67 2.01 0.34 1.02 0 0 Z " fill="#E29848" transform="translate(182,61)"/>
<path d="M0 0 C4.46650156 2.10570721 8.19305539 4.97974918 12.125 7.9375 C12.85332031 8.47568359 13.58164063 9.01386719 14.33203125 9.56835938 C15.02941406 10.09107422 15.72679687 10.61378906 16.4453125 11.15234375 C17.07969238 11.62663818 17.71407227 12.10093262 18.36767578 12.58959961 C20 14 20 14 22 17 C21.2265625 16.566875 21.2265625 16.566875 20.4375 16.125 C17.853663 14.85025926 17.853663 14.85025926 14.3125 14 C13.219375 13.67 12.12625 13.34 11 13 C10.67 12.34 10.34 11.68 10 11 C9.01 10.67 8.02 10.34 7 10 C6.71125 9.2575 6.4225 8.515 6.125 7.75 C4.73024988 4.34061083 2.68504743 2.47307 0 0 Z " fill="#ECAD6A" transform="translate(166,47)"/>
<path d="M0 0 C2 1 2 1 2 1 Z M-2 1 C-1.34 1.33 -0.68 1.66 0 2 C-3.465 4.97 -3.465 4.97 -7 8 C-7.66 7.67 -8.32 7.34 -9 7 C-5.375 2.125 -5.375 2.125 -2 1 Z M-12 6 C-11.34 6 -10.68 6 -10 6 C-9.67 6.99 -9.34 7.98 -9 9 C-12.90102388 11.78644563 -16.38486888 13.68139111 -21 15 C-21 14.34 -21 13.68 -21 13 C-20.443125 12.773125 -19.88625 12.54625 -19.3125 12.3125 C-16.77527615 11.00796402 -16.77527615 11.00796402 -14.375 8.375 C-13.59125 7.59125 -12.8075 6.8075 -12 6 Z " fill="#1A9988" transform="translate(126,45)"/>
<path d="M0 0 C0.33 0 0.66 0 1 0 C1.33 3.3 1.66 6.6 2 10 C2.66 10 3.32 10 4 10 C4 10.66 4 11.32 4 12 C6.475 12.99 6.475 12.99 9 14 C9 14.66 9 15.32 9 16 C9.99 16.33 10.98 16.66 12 17 C10.02 17.99 10.02 17.99 8 19 C7.45730469 18.59007813 6.91460937 18.18015625 6.35546875 17.7578125 C5.64003906 17.21898438 4.92460937 16.68015625 4.1875 16.125 C3.47980469 15.59132813 2.77210938 15.05765625 2.04296875 14.5078125 C0.39543703 13.29185219 -1.29624211 12.13583859 -3 11 C-2.34 10.67 -1.68 10.34 -1 10 C-0.53248212 7.64400765 -0.53248212 7.64400765 -0.375 4.9375 C-0.30023438 4.01839844 -0.22546875 3.09929687 -0.1484375 2.15234375 C-0.09945312 1.44207031 -0.05046875 0.73179688 0 0 Z " fill="#329C8B" transform="translate(144,102)"/>
<path d="M0 0 C3.99455527 0.61454696 6.74466336 2.70646737 10 5 C9.01 5.495 9.01 5.495 8 6 C6.02 5.01 4.04 4.02 2 3 C2 7.95 2 12.9 2 18 C3.32 18.33 4.64 18.66 6 19 C6 19.66 6 20.32 6 21 C2.34683329 19.75023244 1.21934164 19.32901247 -1 16 C-1.61094248 10.656842 -0.89727967 5.27151803 0 0 Z " fill="#EF8319" transform="translate(152,42)"/>
<path d="M0 0 C3.93673644 1.31224548 6.22719294 2.91910327 9 6 C4.545 5.01 4.545 5.01 0 4 C0 13.9 0 23.8 0 34 C-0.33 34 -0.66 34 -1 34 C-1.02465288 29.31860746 -1.04283739 24.63725241 -1.05493164 19.95581055 C-1.05997157 18.36205386 -1.0668035 16.76830181 -1.07543945 15.17456055 C-1.08751999 12.88849747 -1.09323155 10.60249533 -1.09765625 8.31640625 C-1.10281754 7.59973282 -1.10797882 6.88305939 -1.11329651 6.14466858 C-1.11349263 4.42936328 -1.06192007 2.71418734 -1 1 C-0.67 0.67 -0.34 0.34 0 0 Z " fill="#F4CE79" transform="translate(149,133)"/>
<path d="M0 0 C0.66 0.33 1.32 0.66 2 1 C0.1875 3.5 0.1875 3.5 -2 6 C-2.99 6 -3.98 6 -5 6 C-3.68 6 -2.36 6 -1 6 C-1 6.99 -1 7.98 -1 9 C-2.93270447 10.93270447 -6.40306881 10.65374251 -9 11 C-10.66934283 11.31966139 -12.3373217 11.64731066 -14 12 C-9.73412126 7.45890328 -4.96387672 3.75264754 0 0 Z " fill="#1D988C" transform="translate(110,52)"/>
<path d="M0 0 C2.4375 0.25 2.4375 0.25 5 1 C5.66 1.99 6.32 2.98 7 4 C5.02 3.34 3.04 2.68 1 2 C1 9.59 1 17.18 1 25 C-0.85825045 21.2834991 -1.25016734 20.15556112 -1.23046875 16.26953125 C-1.22853516 15.38458984 -1.22660156 14.49964844 -1.22460938 13.58789062 C-1.21236328 12.67201172 -1.20011719 11.75613281 -1.1875 10.8125 C-1.18685547 9.88501953 -1.18621094 8.95753906 -1.18554688 8.00195312 C-1.14037187 1.14037187 -1.14037187 1.14037187 0 0 Z " fill="#F2C99C" transform="translate(149,35)"/>
<path d="M0 0 C0.33 0 0.66 0 1 0 C1.02505615 0.89831543 1.0501123 1.79663086 1.07592773 2.72216797 C1.17098693 6.05074869 1.27022421 9.37914994 1.37231445 12.70751953 C1.41566231 14.1488762 1.45733752 15.59028418 1.49731445 17.03173828 C1.55502088 19.10204541 1.61871371 21.17209432 1.68359375 23.2421875 C1.72025146 24.4885498 1.75690918 25.73491211 1.79467773 27.01904297 C1.80289479 29.92636942 1.80289479 29.92636942 3 32 C3.969375 32.45375 4.93875 32.9075 5.9375 33.375 C9.07187022 35.03813522 9.8759417 35.74023094 11 39 C7.12110481 37.20974068 3.03770253 35.03770253 0 32 C-0.0883967 29.6243148 -0.11530305 27.27791326 -0.09765625 24.90234375 C-0.0962413 24.19348526 -0.09482635 23.48462677 -0.09336853 22.75428772 C-0.08775443 20.48198288 -0.07519963 18.20977525 -0.0625 15.9375 C-0.05748681 14.40039204 -0.05292359 12.86328255 -0.04882812 11.32617188 C-0.03778042 7.55074358 -0.02050641 3.77538829 0 0 Z " fill="#E7B550" transform="translate(149,197)"/>
<path d="M0 0 C0.66 0.33 1.32 0.66 2 1 C0.80002533 7.11987083 -0.84355171 9.4549418 -6 13 C-6.66 13 -7.32 13 -8 13 C-8.3125 10.1875 -8.3125 10.1875 -8 7 C-5.61107499 5.11400657 -4.08148442 4 -1 4 C-0.67 2.68 -0.34 1.36 0 0 Z " fill="#1EA090" transform="translate(131,59)"/>
<path d="M0 0 C-1.21813269 3.65439808 -3.29456487 5.41276349 -6 8 C-7.4401645 9.43483055 -8.8775465 10.87245801 -10.3125 12.3125 C-11.54166667 13.54166667 -12.77083333 14.77083333 -14 16 C-14.66 15.67 -15.32 15.34 -16 15 C-14.625 12.5 -14.625 12.5 -13 10 C-12.34 10 -11.68 10 -11 10 C-11 9.34 -11 8.68 -11 8 C-10.01 8 -9.02 8 -8 8 C-7.855625 7.401875 -7.71125 6.80375 -7.5625 6.1875 C-7.1127561 4.43849596 -6.57107659 2.71322977 -6 1 C-3 0 -3 0 0 0 Z " fill="#E6AF45" transform="translate(211,235)"/>
<path d="M0 0 C1.4835001 0.42257276 2.96176424 0.86356322 4.4375 1.3125 C5.67306641 1.67794922 5.67306641 1.67794922 6.93359375 2.05078125 C7.61550781 2.36402344 8.29742187 2.67726563 9 3 C9.33 3.99 9.66 4.98 10 6 C10.598125 6.0825 11.19625 6.165 11.8125 6.25 C15.45879741 7.50015911 16.30072588 10.66214012 18 14 C14.25730754 12.32754081 11.14960383 10.01241859 7.875 7.5625 C6.82054687 6.78003906 5.76609375 5.99757813 4.6796875 5.19140625 C2 3 2 3 0 0 Z " fill="#57ACA3" transform="translate(154,121)"/>
<path d="M0 0 C-2.58802901 2.89250301 -4.32840484 4.78070362 -8.0625 6 C-11.6708092 7.22836058 -12.8822654 8.90484943 -15 12 C-15.66 11.67 -16.32 11.34 -17 11 C-9.63559008 0.6324411 -9.63559008 0.6324411 -5.125 -0.6875 C-2 -1 -2 -1 0 0 Z " fill="#169883" transform="translate(103,63)"/>
<path d="M0 0 C5.39399122 0.37632497 7.46951619 1.99242379 11 6 C11.598125 6.598125 12.19625 7.19625 12.8125 7.8125 C13.204375 8.204375 13.59625 8.59625 14 9 C12.68 9 11.36 9 10 9 C9.67 9.33 9.34 9.66 9 10 C7.86800647 9.0919838 6.74467637 8.17316174 5.625 7.25 C4.99851563 6.73953125 4.37203125 6.2290625 3.7265625 5.703125 C1.91687682 3.91800519 0.99882545 2.32050356 0 0 Z " fill="#EA9338" transform="translate(178,86)"/>
<path d="M0 0 C5.0216751 1.56745928 8.5619007 4.59427255 12.5625 7.875 C13.22185547 8.40480469 13.88121094 8.93460938 14.56054688 9.48046875 C17.88260414 12.17150207 21.05112873 14.89355546 24 18 C18.88543456 16.4016983 15.1488211 13.26295183 11 10 C9.37554905 8.72846491 7.75055265 7.45762635 6.125 6.1875 C5.38507813 5.60355469 4.64515625 5.01960937 3.8828125 4.41796875 C2.05366905 2.9514838 2.05366905 2.9514838 0 2 C0 1.34 0 0.68 0 0 Z " fill="#F3D48C" transform="translate(158,139)"/>
<path d="M0 0 C0.33 0 0.66 0 1 0 C1 6.93 1 13.86 1 21 C1.33 20.01 1.66 19.02 2 18 C2.66 18 3.32 18 4 18 C4.33 17.34 4.66 16.68 5 16 C6.65 16.33 8.3 16.66 10 17 C6.61418999 19.90212286 4.26511313 21.29395475 0 23 C0 15.41 0 7.82 0 0 Z " fill="#36594E" transform="translate(96,124)"/>
<path d="M0 0 C5.11136723 3.65838974 9.66297078 7.44611932 14 12 C13.67 12.66 13.34 13.32 13 14 C7.25 11.25 7.25 11.25 5 9 C5 8.01 5 7.02 5 6 C3.68 5.67 2.36 5.34 1 5 C0.67 3.35 0.34 1.7 0 0 Z " fill="#45A698" transform="translate(174,102)"/>
<path d="M0 0 C-3.3 3.3 -6.6 6.6 -10 10 C-10.66 9.67 -11.32 9.34 -12 9 C-11.43224464 7.70141061 -10.84508337 6.41129559 -10.25 5.125 C-9.92515625 4.40570313 -9.6003125 3.68640625 -9.265625 2.9453125 C-6.62644888 -1.11119895 -4.57389878 -1.14347469 0 0 Z " fill="#3FA294" transform="translate(123,73)"/>
<path d="M0 0 C1.32 0.33 2.64 0.66 4 1 C0.7 4.3 -2.6 7.6 -6 11 C-6.66 10.01 -7.32 9.02 -8 8 C-7.4375 5.4375 -7.4375 5.4375 -6 3 C-3.4375 1.75 -3.4375 1.75 -1 1 C-0.67 0.67 -0.34 0.34 0 0 Z " fill="#EAAB40" transform="translate(218,224)"/>
<path d="M0 0 C4.53860088 0.53395304 7.29087883 2.4197418 11 5 C11.99 5.33 12.98 5.66 14 6 C15.1875 9.0625 15.1875 9.0625 16 12 C12.21751528 10.31991577 9.0307578 7.92161446 5.75 5.4375 C5.19570312 5.02564453 4.64140625 4.61378906 4.0703125 4.18945312 C2.69298825 3.15306751 1.3437077 2.07961421 0 1 C0 0.67 0 0.34 0 0 Z " fill="#E9AA66" transform="translate(214,167)"/>
<path d="M0 0 C0.33 1.32 0.66 2.64 1 4 C2.32 4 3.64 4 5 4 C5.33 5.65 5.66 7.3 6 9 C6.99 9 7.98 9 9 9 C9.33 10.98 9.66 12.96 10 15 C5.04467233 11.13242719 1.03523352 6.81123996 -3 2 C-2.01 1.34 -1.02 0.68 0 0 Z " fill="#457262" transform="translate(59,214)"/>
<path d="M0 0 C0.763125 0.309375 1.52625 0.61875 2.3125 0.9375 C5.40381162 2.15964645 7.65238648 3 11 3 C11.268125 3.928125 11.53625 4.85625 11.8125 5.8125 C12.91148371 8.76240366 13.62418561 10.05615186 16 12 C14.35 11.67 12.7 11.34 11 11 C10.67 9.35 10.34 7.7 10 6 C9.278125 5.938125 8.55625 5.87625 7.8125 5.8125 C4.15342375 4.75543353 2.50788398 2.79449929 0 0 Z " fill="#EA8621" transform="translate(218,167)"/>
<path d="M0 0 C3.875 0.875 3.875 0.875 5 2 C5.08767112 4.07262076 5.10695873 6.14820294 5.09765625 8.22265625 C5.09443359 9.48271484 5.09121094 10.74277344 5.08789062 12.04101562 C5.07953403 13.38151109 5.07106907 14.72200588 5.0625 16.0625 C5.0574866 17.40689942 5.05292342 18.7513006 5.04882812 20.09570312 C5.03699488 23.39717941 5.02050971 26.69856803 5 30 C4.34 30 3.68 30 3 30 C3.01571045 29.22285645 3.0314209 28.44571289 3.04760742 27.64501953 C3.10980351 24.1384198 3.14894207 20.63193587 3.1875 17.125 C3.21263672 15.90167969 3.23777344 14.67835938 3.26367188 13.41796875 C3.27817383 11.66806641 3.27817383 11.66806641 3.29296875 9.8828125 C3.31653442 8.26463623 3.31653442 8.26463623 3.34057617 6.61376953 C3.22818604 5.75122559 3.1157959 4.88868164 3 4 C2.01 3.34 1.02 2.68 0 2 C0 1.34 0 0.68 0 0 Z " fill="#1D9181" transform="translate(183,114)"/>
<path d="M0 0 C0.66 0.33 1.32 0.66 2 1 C1.6875 2.9375 1.6875 2.9375 1 5 C0.01 5.33 -0.98 5.66 -2 6 C-2 6.66 -2 7.32 -2 8 C-4.31 8.66 -6.62 9.32 -9 10 C-8.34 9.01 -7.68 8.02 -7 7 C-6.34 7 -5.68 7 -5 7 C-4.9175 6.401875 -4.835 5.80375 -4.75 5.1875 C-3.79544128 2.4033704 -2.42867729 1.56688858 0 0 Z " fill="#0E4932" transform="translate(85,173)"/>
<path d="M0 0 C6.65030706 1.71912699 11.12223898 4.15360722 16 9 C12.40052181 9 11.74899383 8.16587393 9 6 C6.28700713 4.4379738 5.20396003 4 2 4 C1.34 5.32 0.68 6.64 0 8 C0 5.36 0 2.72 0 0 Z " fill="#E5AD6F" transform="translate(150,37)"/>
<path d="M0 0 C0 0.66 0 1.32 0 2 C-0.99 2.66 -1.98 3.32 -3 4 C-3.33 4.99 -3.66 5.98 -4 7 C-4.66 7 -5.32 7 -6 7 C-6.33 7.99 -6.66 8.98 -7 10 C-8.65 10.33 -10.3 10.66 -12 11 C-10.73046875 9.53515625 -9.4609375 8.0703125 -8.19140625 6.60546875 C-6.79128769 4.89287029 -6.79128769 4.89287029 -6 2 C-3 0 -3 0 0 0 Z " fill="#0F422E" transform="translate(116,101)"/>
<path d="M0 0 C0.66 0.33 1.32 0.66 2 1 C0.24277009 5.31320068 -2.8062168 8.9031084 -7 11 C-7 10.34 -7 9.68 -7 9 C-8.32 9.33 -9.64 9.66 -11 10 C-7.50640535 6.40365256 -3.88901869 3.16548033 0 0 Z " fill="#66BAAE" transform="translate(123,42)"/>
<path d="M0 0 C0 3.02194968 -0.48982562 5.23087373 -1.3125 8.125 C-1.55613281 9.01445313 -1.79976562 9.90390625 -2.05078125 10.8203125 C-2.36402344 11.53960937 -2.67726563 12.25890625 -3 13 C-3.99 13.33 -4.98 13.66 -6 14 C-6.33 14.66 -6.66 15.32 -7 16 C-6.56688677 10.36952802 -4.07551604 4.07551604 0 0 Z " fill="#5BB2A5" transform="translate(54,98)"/>
<path d="M0 0 C3.98542514 1.36643148 6.92539863 3.10109014 10 6 C10 6.99 10 7.98 10 9 C5.58968355 8.49111733 3.10672401 5.96550928 0 3 C0 2.01 0 1.02 0 0 Z " fill="#E59D54" transform="translate(206,77)"/>
<path d="M0 0 C0.66 0.33 1.32 0.66 2 1 C0.77946141 4.66161578 -0.36782304 5.16270474 -3.5625 7.1875 C-4.38878906 7.71730469 -5.21507813 8.24710938 -6.06640625 8.79296875 C-6.70449219 9.19128906 -7.34257813 9.58960938 -8 10 C-8.66 9.34 -9.32 8.68 -10 8 C-6.7 5.36 -3.4 2.72 0 0 Z " fill="#3F6959" transform="translate(79,176)"/>
<path d="M0 0 C5.07648175 2.78387709 9.4833069 6.40829416 14 10 C12 11 12 11 9.87109375 10.36328125 C9.06800781 10.01652344 8.26492187 9.66976562 7.4375 9.3125 C6.63183594 8.97863281 5.82617188 8.64476562 4.99609375 8.30078125 C3 7 3 7 2.34765625 4.91796875 C2.23292969 4.28503906 2.11820313 3.65210938 2 3 C1.34 2.67 0.68 2.34 0 2 C0 1.34 0 0.68 0 0 Z " fill="#F0C570" transform="translate(182,157)"/>
<path d="M0 0 C0.66 0 1.32 0 2 0 C2 0.99 2 1.98 2 3 C1.34 3.66 0.68 4.32 0 5 C-0.99 5 -1.98 5 -3 5 C-3 5.66 -3 6.32 -3 7 C-3.99 7 -4.98 7 -6 7 C-6 7.66 -6 8.32 -6 9 C-6.99 9 -7.98 9 -9 9 C-9 9.66 -9 10.32 -9 11 C-10.32 11.33 -11.64 11.66 -13 12 C-13 11.34 -13 10.68 -13 10 C-12.01 10 -11.02 10 -10 10 C-10 9.01 -10 8.02 -10 7 C-8.576875 6.87625 -8.576875 6.87625 -7.125 6.75 C-3.89538209 6.34925077 -3.89538209 6.34925077 -2.625 3.9375 C-2.41875 3.298125 -2.2125 2.65875 -2 2 C-1.34 2 -0.68 2 0 2 C0 1.34 0 0.68 0 0 Z " fill="#189D8F" transform="translate(77,157)"/>
<path d="M0 0 C2.4375 0.8125 2.4375 0.8125 5 2 C5.33 2.99 5.66 3.98 6 5 C8.33010909 5.67784992 10.66359824 6.34416793 13 7 C13.99 8.485 13.99 8.485 15 10 C8.0421899 8.45982456 3.9626176 7.07601365 0 1 C0 0.67 0 0.34 0 0 Z " fill="#EAA125" transform="translate(199,174)"/>
<path d="M0 0 C0 3.10551666 -0.5393715 4.35261084 -2 7 C-2.66 7 -3.32 7 -4 7 C-4.2475 7.804375 -4.495 8.60875 -4.75 9.4375 C-6 12 -6 12 -8.125 12.8125 C-8.74375 12.874375 -9.3625 12.93625 -10 13 C-8.48446596 9.52224821 -6.4226544 7.0442016 -3.875 4.25 C-3.15054688 3.45078125 -2.42609375 2.6515625 -1.6796875 1.828125 C-0.84824219 0.92320313 -0.84824219 0.92320313 0 0 Z " fill="#3D6457" transform="translate(138,73)"/>
<path d="M0 0 C1.32 0.33 2.64 0.66 4 1 C4 1.66 4 2.32 4 3 C4.78375 3.144375 5.5675 3.28875 6.375 3.4375 C9 4 9 4 11 5 C11 5.99 11 6.98 11 8 C11.66 8.33 12.32 8.66 13 9 C8.4923533 8.46968862 5.58045212 6.74778884 2 4 C2 3.34 2 2.68 2 2 C1.34 2 0.68 2 0 2 C0 1.34 0 0.68 0 0 Z " fill="#EA8620" transform="translate(195,72)"/>
<path d="M0 0 C0.66 0.33 1.32 0.66 2 1 C1.649375 1.556875 1.29875 2.11375 0.9375 2.6875 C-0.2500817 5.6168682 0.00869652 7.02608955 1 10 C2.4579186 11.79385992 2.4579186 11.79385992 4 13 C3.67 13.66 3.34 14.32 3 15 C1.79745476 13.76446724 0.61333768 12.51097661 -0.5625 11.25 C-1.22378906 10.55390625 -1.88507812 9.8578125 -2.56640625 9.140625 C-4 7 -4 7 -3.8125 4.84375 C-2.87775561 2.72259927 -1.73895728 1.51213677 0 0 Z " fill="#668B7C" transform="translate(50,198)"/>
<path d="M0 0 C0.33 0 0.66 0 1 0 C1.3125 2.25 1.3125 2.25 1 5 C-3.10810811 9 -3.10810811 9 -6 9 C-6 7.68 -6 6.36 -6 5 C-5.195625 4.731875 -4.39125 4.46375 -3.5625 4.1875 C-2.716875 3.795625 -1.87125 3.40375 -1 3 C-0.67 2.01 -0.34 1.02 0 0 Z " fill="#2D5D4A" transform="translate(134,226)"/>
<path d="M0 0 C0.598125 0.226875 1.19625 0.45375 1.8125 0.6875 C-2.71130952 5.46263228 -2.71130952 5.46263228 -5.4375 6.75 C-7.40844022 7.5528367 -7.40844022 7.5528367 -7.9375 9.8125 C-8.02 10.43125 -8.1025 11.05 -8.1875 11.6875 C-8.1875 10.0375 -8.1875 8.3875 -8.1875 6.6875 C-7.5275 6.6875 -6.8675 6.6875 -6.1875 6.6875 C-6.084375 6.089375 -5.98125 5.49125 -5.875 4.875 C-4.83732915 1.57332002 -3.68219011 -0.52602716 0 0 Z " fill="#129A85" transform="translate(66.1875,89.3125)"/>
<path d="M0 0 C1.11375 0.1546875 1.11375 0.1546875 2.25 0.3125 C-1.18361902 3.94809661 -4.5473607 6.67363346 -8.75 9.3125 C-4.85638298 0.5518617 -4.85638298 0.5518617 0 0 Z " fill="#335F4F" transform="translate(104.75,157.6875)"/>
<path d="M0 0 C0.33 0 0.66 0 1 0 C1.33 2.64 1.66 5.28 2 8 C3.65 8 5.3 8 7 8 C7 8.66 7 9.32 7 10 C5.02 10.33 3.04 10.66 1 11 C1.33 11.99 1.66 12.98 2 14 C1.34 14 0.68 14 0 14 C0 9.38 0 4.76 0 0 Z " fill="#113F30" transform="translate(97,131)"/>
<path d="M0 0 C0.33 0 0.66 0 1 0 C1.02578125 0.88042969 1.0515625 1.76085938 1.078125 2.66796875 C1.13484375 3.82941406 1.1915625 4.99085937 1.25 6.1875 C1.29640625 7.33605469 1.3428125 8.48460937 1.390625 9.66796875 C2.08826 13.48260114 3.37251591 15.20961189 6 18 C4.33388095 18.042721 2.66617115 18.04063832 1 18 C0 17 0 17 -0.09765625 13.18359375 C-0.09098089 11.60153318 -0.07901875 10.01948841 -0.0625 8.4375 C-0.05798828 7.63119141 -0.05347656 6.82488281 -0.04882812 5.99414062 C-0.03700518 3.99606244 -0.01906914 1.99802217 0 0 Z " fill="#E09A4B" transform="translate(150,45)"/>
<path d="M0 0 C0.99 0.66 1.98 1.32 3 2 C2.69381595 5.67420866 2.24228216 6.78135513 -0.5625 9.3125 C-1.366875 9.869375 -2.17125 10.42625 -3 11 C-2.67 9.35 -2.34 7.7 -2 6 C-1.34 6 -0.68 6 0 6 C0 4.02 0 2.04 0 0 Z " fill="#E5BA69" transform="translate(236,200)"/>
<path d="M0 0 C0.66 0.33 1.32 0.66 2 1 C-1.64751781 6.08441876 -3.85169289 7.79444959 -10 9 C-6.83047153 5.73991357 -3.60062011 2.77762123 0 0 Z " fill="#43A698" transform="translate(89,68)"/>
<path d="M0 0 C-1.28716647 1.00578589 -2.57988658 2.00446798 -3.875 3 C-4.95394531 3.8353125 -4.95394531 3.8353125 -6.0546875 4.6875 C-8 6 -8 6 -10 6 C-10.33 5.01 -10.66 4.02 -11 3 C-10.01 2.67 -9.02 2.34 -8 2 C-8 1.34 -8 0.68 -8 0 C-2.25 -1.125 -2.25 -1.125 0 0 Z " fill="#447162" transform="translate(129,236)"/>
<path d="M0 0 C0.33 0 0.66 0 1 0 C1 4.62 1 9.24 1 14 C-4 14 -4 14 -6.3125 12 C-6.869375 11.34 -7.42625 10.68 -8 10 C-5.525 10.495 -5.525 10.495 -3 11 C-3 11.66 -3 12.32 -3 13 C-2.01 13 -1.02 13 0 13 C0 8.71 0 4.42 0 0 Z " fill="#E49F5D" transform="translate(238,169)"/>
<path d="M0 0 C3.13107836 3.38583802 3.33550778 5.71109462 3.1875 10.25 C3.16042969 11.32765625 3.13335937 12.4053125 3.10546875 13.515625 C3.07066406 14.33546875 3.03585938 15.1553125 3 16 C2.67 16 2.34 16 2 16 C0.40837921 10.42932723 -0.20674944 5.78898419 0 0 Z " fill="#EAA359" transform="translate(235,106)"/>
<path d="M0 0 C1.32 0 2.64 0 4 0 C7.07692308 5.41538462 7.07692308 5.41538462 6.6875 8.375 C6.460625 8.91125 6.23375 9.4475 6 10 C6 9.34 6 8.68 6 8 C5.34 8 4.68 8 4 8 C2.68 5.36 1.36 2.72 0 0 Z " fill="#EBA864" transform="translate(196,106)"/>
<path d="M0 0 C1.98 1.65 3.96 3.3 6 5 C5.67 6.65 5.34 8.3 5 10 C1.32769295 6.92000054 0.43197635 4.7517398 0 0 Z " fill="#3FA097" transform="translate(148,74)"/>
<path d="M0 0 C4.76838888 2.11928395 8.31232818 4.29719358 10.3125 9.25 C10.539375 10.1575 10.76625 11.065 11 12 C6.33867137 8.42270128 3.26088466 4.89132699 0 0 Z " fill="#E38D30" transform="translate(167,74)"/>
<path d="M0 0 C0.99 0 1.98 0 3 0 C1.8512638 3.44620861 0.92418358 4.09169196 -1.9375 6.1875 C-2.64777344 6.71730469 -3.35804687 7.24710938 -4.08984375 7.79296875 C-6 9 -6 9 -8 9 C-8 8.01 -8 7.02 -8 6 C-7.01 6 -6.02 6 -5 6 C-5 5.34 -5 4.68 -5 4 C-4.01 4 -3.02 4 -2 4 C-2 3.34 -2 2.68 -2 2 C-1.34 1.34 -0.68 0.68 0 0 Z " fill="#4CA8A2" transform="translate(76,160)"/>
<path d="M0 0 C0.66 0.33 1.32 0.66 2 1 C0.33333333 2.66666667 -1.33333333 4.33333333 -3 6 C-3.515625 6.61875 -4.03125 7.2375 -4.5625 7.875 C-5.2740625 8.431875 -5.2740625 8.431875 -6 9 C-7.32 8.67 -8.64 8.34 -10 8 C-6.7 5.36 -3.4 2.72 0 0 Z " fill="#6F9785" transform="translate(114,149)"/>
<path d="M0 0 C3.85645478 1.13940709 7.06505829 2.17794066 10 5 C10 5.99 10 6.98 10 8 C7.525 7.01 7.525 7.01 5 6 C5 5.34 5 4.68 5 4 C4.360625 3.71125 3.72125 3.4225 3.0625 3.125 C1 2 1 2 0 0 Z " fill="#E48A2D" transform="translate(163,48)"/>
<path d="M0 0 C1.65 0 3.3 0 5 0 C4.8125 1.875 4.8125 1.875 4 4 C1.5625 5.1875 1.5625 5.1875 -1 6 C-1.99 6.495 -1.99 6.495 -3 7 C-3 6.01 -3 5.02 -3 4 C-2.34 4 -1.68 4 -1 4 C-0.67 2.68 -0.34 1.36 0 0 Z " fill="#EBA21F" transform="translate(218,220)"/>
<path d="M0 0 C4.94515667 2.62711448 8.87775489 6.26645294 13 10 C12.01 10.495 12.01 10.495 11 11 C7.7089747 9.90299157 7.03976712 9.12380142 4.9375 6.5 C2.82278233 3.81893599 2.82278233 3.81893599 0 2 C0 1.34 0 0.68 0 0 Z " fill="#F0CD7C" transform="translate(223,189)"/>
<path d="M0 0 C3.93673644 1.31224548 6.22719294 2.91910327 9 6 C4.545 5.01 4.545 5.01 0 4 C0 2.68 0 1.36 0 0 Z " fill="#E3C480" transform="translate(149,133)"/>
<path d="M0 0 C0.99 0.33 1.98 0.66 3 1 C0.03 4.96 0.03 4.96 -3 9 C-3.66 7.68 -4.32 6.36 -5 5 C-4.01 4.67 -3.02 4.34 -2 4 C-0.79117904 1.99983534 -0.79117904 1.99983534 0 0 Z " fill="#3BA79A" transform="translate(90,100)"/>
<path d="M0 0 C2.97 0.99 5.94 1.98 9 3 C9 3.99 9 4.98 9 6 C9.66 6.33 10.32 6.66 11 7 C5.95904225 6.55520961 3.58884285 4.33845847 0 1 C0 0.67 0 0.34 0 0 Z " fill="#F2A31D" transform="translate(160,233)"/>
<path d="M0 0 C3.03852705 1.40976705 5.5939595 3.08870228 8.25 5.125 C8.95640625 5.66382813 9.6628125 6.20265625 10.390625 6.7578125 C10.92171875 7.16773438 11.4528125 7.57765625 12 8 C8.91913049 8 7.59607244 7.5553115 4.875 6.25 C3.81925781 5.76273438 3.81925781 5.76273438 2.7421875 5.265625 C1 4 1 4 0.2578125 1.859375 C0.17273438 1.24578125 0.08765625 0.6321875 0 0 Z " fill="#EFD07E" transform="translate(196,168)"/>
<path d="M0 0 C0.99 0.33 1.98 0.66 3 1 C2.67 5.29 2.34 9.58 2 14 C1.67 14 1.34 14 1 14 C0.67 10.37 0.34 6.74 0 3 C-1.65 3.66 -3.3 4.32 -5 5 C-3.35 3.35 -1.7 1.7 0 0 Z " fill="#698679" transform="translate(134,134)"/>
<path d="M0 0 C0.99 0.33 1.98 0.66 3 1 C3 1.66 3 2.32 3 3 C3.61875 3.268125 4.2375 3.53625 4.875 3.8125 C7 5 7 5 9 8 C7.02 7.34 5.04 6.68 3 6 C3 5.34 3 4.68 3 4 C2.01 3.67 1.02 3.34 0 3 C0 2.01 0 1.02 0 0 Z " fill="#E4AB37" transform="translate(220,188)"/>
<path d="M0 0 C4.04420651 1.77945087 7.46078487 4.39529673 11 7 C10.01 7.495 10.01 7.495 9 8 C6.375 7.0625 6.375 7.0625 4 6 C4 5.34 4 4.68 4 4 C2.68 3.67 1.36 3.34 0 3 C0 2.01 0 1.02 0 0 Z " fill="#E9A762" transform="translate(195,69)"/>
<path d="M0 0 C5.875 2.875 5.875 2.875 7 4 C7.04063832 5.66617115 7.042721 7.33388095 7 9 C6.67 8.34 6.34 7.68 6 7 C5.01 6.67 4.02 6.34 3 6 C2.67 5.01 2.34 4.02 2 3 C1.34 2.67 0.68 2.34 0 2 C0 1.34 0 0.68 0 0 Z " fill="#EA8520" transform="translate(220,91)"/>
<path d="M0 0 C-1.97420135 2.52259061 -2.96745642 2.9929808 -6.1875 3.6875 C-7.5796875 3.8421875 -7.5796875 3.8421875 -9 4 C-8 1 -8 1 -6.1875 -0.25 C-3.66056586 -1.11637742 -2.47778006 -0.88492145 0 0 Z " fill="#279E8D" transform="translate(123,73)"/>
<path d="M0 0 C2.475 0.495 2.475 0.495 5 1 C5 1.66 5 2.32 5 3 C5.66 3 6.32 3 7 3 C7.33 4.65 7.66 6.3 8 8 C6.85073734 7.04578192 5.70569459 6.08647955 4.5625 5.125 C3.92441406 4.59132812 3.28632812 4.05765625 2.62890625 3.5078125 C1 2 1 2 0 0 Z " fill="#3A6353" transform="translate(73,233)"/>
<path d="M0 0 C4.99275057 1.27721526 7.57611908 3.17330957 11 7 C7.41584854 7 6.58796261 6.21108216 3.8125 4.0625 C3.09707031 3.51722656 2.38164062 2.97195312 1.64453125 2.41015625 C1.10183594 1.94480469 0.55914062 1.47945312 0 1 C0 0.67 0 0.34 0 0 Z " fill="#EDC56E" transform="translate(149,228)"/>
<path d="M0 0 C0.66 0.33 1.32 0.66 2 1 C0.35 2.98 -1.3 4.96 -3 7 C-4.32 6.67 -5.64 6.34 -7 6 C-4.69 4.02 -2.38 2.04 0 0 Z " fill="#6D9184" transform="translate(127,139)"/>
<path d="M0 0 C1.32 0.33 2.64 0.66 4 1 C0.535 3.97 0.535 3.97 -3 7 C-3.33 6.01 -3.66 5.02 -4 4 C-2.25 1.9375 -2.25 1.9375 0 0 Z " fill="#E8B151" transform="translate(214,228)"/>
<path d="M0 0 C2.8125 0.125 2.8125 0.125 6 1 C7.875 4.0625 7.875 4.0625 9 7 C5.18315774 5.44499019 2.80804268 2.96404505 0 0 Z " fill="#EBA86A" transform="translate(205,160)"/>
<path d="M0 0 C0.99 0.33 1.98 0.66 3 1 C0.19195732 3.96404505 -2.18315774 6.44499019 -6 8 C-5.34 6.35 -4.68 4.7 -4 3 C-2.68 3 -1.36 3 0 3 C0 2.01 0 1.02 0 0 Z " fill="#3E6455" transform="translate(125,123)"/>
<path d="M0 0 C-4.625 4 -4.625 4 -8 4 C-7.6875 2.0625 -7.6875 2.0625 -7 0 C-3.86650268 -1.04449911 -3.01031744 -0.93423645 0 0 Z " fill="#42A695" transform="translate(132,66)"/>
<path d="M0 0 C0.33 1.32 0.66 2.64 1 4 C-1.64 4.33 -4.28 4.66 -7 5 C-4.63707344 2.47411298 -3.33537489 1.11179163 0 0 Z " fill="#33978B" transform="translate(134,37)"/>
<path d="M0 0 C2.31 0.33 4.62 0.66 7 1 C7.33 2.65 7.66 4.3 8 6 C4.08597051 4.73058503 2.20927127 3.48832306 0 0 Z " fill="#69BBB7" transform="translate(172,135)"/>
<path d="M0 0 C2 3 2 3 2 5 C-0.64 5.33 -3.28 5.66 -6 6 C-4 4 -2 2 0 0 Z " fill="#3CA393" transform="translate(68,84)"/>
<path d="M0 0 C0.66 0.33 1.32 0.66 2 1 C1.67 2.98 1.34 4.96 1 7 C0.34 7 -0.32 7 -1 7 C-1 6.34 -1 5.68 -1 5 C-1.66 4.67 -2.32 4.34 -3 4 C-2.01 2.68 -1.02 1.36 0 0 Z " fill="#326250" transform="translate(67,185)"/>
<path d="M0 0 C2.94956528 1.36944102 5.52468811 2.87830409 8 5 C8 5.66 8 6.32 8 7 C4.59679258 5.98823563 3.24274669 5.35156418 1.1875 2.375 C0.795625 1.59125 0.40375 0.8075 0 0 Z " fill="#24958B" transform="translate(168,129)"/>
<path d="M0 0 C2.79872437 2.52788007 4.45773019 4.20411134 5 8 C2 7 2 7 0 4 C0 2.68 0 1.36 0 0 Z " fill="#E6AE6C" transform="translate(230,98)"/>
<path d="M0 0 C1.32 0 2.64 0 4 0 C4 0.66 4 1.32 4 2 C4.99 2 5.98 2 7 2 C7 2.99 7 3.98 7 5 C4.11424181 4.60196439 3.17810487 4.20990931 1.25 1.9375 C0.8375 1.298125 0.425 0.65875 0 0 Z " fill="#E68B34" transform="translate(154,63)"/>
<path d="M0 0 C3.82097239 0.53069061 6.06171403 1.49701566 9 4 C6.1875 4.25 6.1875 4.25 3 4 C1.125 2 1.125 2 0 0 Z " fill="#346151" transform="translate(87,247)"/>
<path d="M0 0 C2.3125 0.1875 2.3125 0.1875 5 1 C6.8125 3.5625 6.8125 3.5625 8 6 C4.63408134 4.55746343 2.48952921 2.66735273 0 0 Z " fill="#EBC26A" transform="translate(160,236)"/>
<path d="M0 0 C0.99 0.33 1.98 0.66 3 1 C1.35 2.65 -0.3 4.3 -2 6 C-2.66 5.67 -3.32 5.34 -4 5 C-3.67 4.01 -3.34 3.02 -3 2 C-2.01 2 -1.02 2 0 2 C0 1.34 0 0.68 0 0 Z " fill="#51AA9F" transform="translate(52,178)"/>
<path d="M0 0 C0.66 0.33 1.32 0.66 2 1 C0.02 3.97 0.02 3.97 -2 7 C-3.32 6.34 -4.64 5.68 -6 5 C-4.02 3.35 -2.04 1.7 0 0 Z " fill="#577E6F" transform="translate(97,162)"/>
<path d="M0 0 C-5.75 5 -5.75 5 -8 5 C-8 2 -8 2 -6 0 C-2.44444444 -1.22222222 -2.44444444 -1.22222222 0 0 Z " fill="#3B6157" transform="translate(136,119)"/>
<path d="M0 0 C0 3 0 3 -1 6 C-3.5625 7.1875 -3.5625 7.1875 -6 8 C-4.55746343 4.63408134 -2.66735273 2.48952921 0 0 Z " fill="#51AC9F" transform="translate(61,90)"/>
<path d="M0 0 C0.66 0.33 1.32 0.66 2 1 C0.68 2.65 -0.64 4.3 -2 6 C-3.32 5.67 -4.64 5.34 -6 5 C-4.02 3.35 -2.04 1.7 0 0 Z " fill="#67B8B0" transform="translate(102,58)"/>
<path d="M0 0 C0.66 0.33 1.32 0.66 2 1 C0.68 2.65 -0.64 4.3 -2 6 C-3.32 5.67 -4.64 5.34 -6 5 C-4.02 3.35 -2.04 1.7 0 0 Z " fill="#6BBDB1" transform="translate(110,52)"/>
<path d="M0 0 C2.31 0.66 4.62 1.32 7 2 C7.33 3.65 7.66 5.3 8 7 C6.66382648 6.02471263 5.3311249 5.04466681 4 4.0625 C3.2575 3.51722656 2.515 2.97195312 1.75 2.41015625 C1.1725 1.94480469 0.595 1.47945312 0 1 C0 0.67 0 0.34 0 0 Z " fill="#E9A529" transform="translate(177,157)"/>
<path d="M0 0 C2.1875 0.3125 2.1875 0.3125 4 1 C2.75 2.5625 2.75 2.5625 1 4 C-1.1875 3.6875 -1.1875 3.6875 -3 3 C-1.75 1.4375 -1.75 1.4375 0 0 Z " fill="#46A591" transform="translate(94,64)"/>
<path d="M0 0 C0.33 0 0.66 0 1 0 C1.1875 3.375 1.1875 3.375 1 7 C0.01 7.66 -0.98 8.32 -2 9 C-2.20140476 5.37471432 -1.85776765 3.13498292 0 0 Z " fill="#3DA39D" transform="translate(134,56)"/>
</svg>
