<?xml version="1.0" encoding="UTF-8"?>
<svg version="1.1" xmlns="http://www.w3.org/2000/svg" width="447" height="87">
<path d="M0 0 C5.99625476 4.12242515 9.14515222 8.47525385 10.72265625 15.6171875 C12.54417247 31.48118657 2.29703549 45.63329738 -6.09301758 58.30639648 C-7.14073856 60.20421997 -7.62845142 61.94633149 -8.0625 64.0625 C-6.886875 64.1553125 -6.886875 64.1553125 -5.6875 64.25 C-4.82125 64.518125 -3.955 64.78625 -3.0625 65.0625 C-1.75 67.625 -1.75 67.625 -1.0625 70.0625 C-3.68539302 72.93519236 -5.62540726 73.94682071 -9.5859375 74.265625 C-13.82274977 74.33527123 -17.24854987 74.36573632 -21.25 72.875 C-23.0625 71.0625 -23.0625 71.0625 -23.375 68.375 C-23.271875 67.611875 -23.16875 66.84875 -23.0625 66.0625 C-21.0825 65.0725 -19.1025 64.0825 -17.0625 63.0625 C-17.84028727 61.48737216 -18.61883705 59.91261793 -19.40039062 58.33935547 C-20.10267696 56.92453286 -20.80180523 55.50813903 -21.49804688 54.09033203 C-23.489572 50.07165678 -25.56584808 46.13968112 -27.8203125 42.26171875 C-33.28537748 32.74410383 -37.2965229 25.32197541 -35.0625 14.0625 C-33.24301793 7.35452997 -28.6334067 3.00903555 -23.0625 -0.9375 C-16.13327955 -3.24724015 -6.61545983 -3.2907672 0 0 Z M-21.0625 10.0625 C-23.37426212 13.45308444 -24.0625 15.44635088 -24.0625 19.5625 C-22.79768183 23.98936361 -21.61281684 26.09182673 -18.0625 29.0625 C-13.87763228 30.03896913 -9.94723984 30.09570075 -6.1171875 27.99609375 C-3.95893081 26.24967831 -2.30930752 24.55611503 -1.0625 22.0625 C-0.53150521 16.29039291 -0.53150521 16.29039291 -2.875 11.1875 C-6.01450172 8.13769833 -7.49801748 7.10802278 -11.9375 6.75 C-15.75466588 6.86906756 -18.09215005 7.51648576 -21.0625 10.0625 Z " fill="#DC3C2A" transform="translate(376.0625,5.9375)"/>
<path d="M0 0 C3.53279543 3.53279543 6.23551989 6.5654413 6.59765625 11.71484375 C6.25465991 16.74266809 5.09110497 19.78389503 1.4375 23.4375 C1.91960938 23.89640625 2.40171875 24.3553125 2.8984375 24.828125 C3.53007813 25.44171875 4.16171875 26.0553125 4.8125 26.6875 C5.43898437 27.29078125 6.06546875 27.8940625 6.7109375 28.515625 C10.50801696 32.74223834 10.87615386 36.36860174 10.75390625 41.90234375 C10.12577256 46.93516804 7.76307125 50.11192875 4.1875 53.6875 C-4.6322392 59.30006131 -13.97785718 60.20590963 -24.140625 58.3984375 C-27.58287564 57.03264128 -30.31887951 55.3853791 -32.5625 52.4375 C-33.30652225 49.20635047 -33.07883254 46.12346439 -32.859375 42.83203125 C-32.82394592 41.91161545 -32.78851685 40.99119965 -32.75201416 40.04289246 C-32.63446622 37.10980996 -32.47552685 34.18087647 -32.3125 31.25 C-32.17089165 28.30862666 -32.0379958 25.36721731 -31.91583252 22.42497253 C-31.837576 20.59585181 -31.74673522 18.7672187 -31.64227295 16.93940735 C-31.60273499 16.11482529 -31.56319702 15.29024323 -31.52246094 14.44067383 C-31.48215759 13.71407059 -31.44185425 12.98746735 -31.40032959 12.23884583 C-31.39161915 10.1811435 -31.39161915 10.1811435 -33.5625 8.4375 C-33.46727471 5.58074117 -32.57871629 4.45587846 -30.6875 2.3125 C-22.49296936 -2.60421838 -8.73206995 -3.82985524 0 0 Z M-19.5625 9.4375 C-19.5625 12.7375 -19.5625 16.0375 -19.5625 19.4375 C-17.974375 19.004375 -16.38625 18.57125 -14.75 18.125 C-13.41001953 17.75955078 -13.41001953 17.75955078 -12.04296875 17.38671875 C-9.4877596 16.40889856 -8.21119098 15.60071535 -6.5625 13.4375 C-6.63856836 11.29946946 -6.63856836 11.29946946 -7.5625 9.4375 C-11.3856584 7.5259208 -15.61698165 8.12232722 -19.5625 9.4375 Z M-19.5625 32.4375 C-19.84440557 35.53072457 -19.84440557 35.53072457 -19.75 39 C-19.74355469 40.17691406 -19.73710937 41.35382812 -19.73046875 42.56640625 C-19.88767435 45.33385973 -19.88767435 45.33385973 -18.5625 46.4375 C-12.54692706 46.96518184 -7.40913695 46.35348596 -2.5625 42.4375 C-1.42451896 39.58128026 -1.4209746 38.77882596 -2.625 35.875 C-5.03797373 32.83932338 -6.92427682 31.76685078 -10.5625 30.4375 C-15.61610222 29.80217745 -15.61610222 29.80217745 -19.5625 32.4375 Z " fill="#DF3926" transform="translate(40.5625,9.5625)"/>
<path d="M0 0 C2 2 2 2 2.5078125 5.2734375 C1.94207508 9.42507981 0.88511311 10.68992894 -2.328125 13.28125 C-2.92109375 13.7246875 -3.5140625 14.168125 -4.125 14.625 C-4.69476563 15.07617188 -5.26453125 15.52734375 -5.8515625 15.9921875 C-6.99001367 16.89259888 -8.13484678 17.78500402 -9.28613281 18.66894531 C-11.91560938 20.7110972 -14.45332957 22.85584283 -17 25 C-16.51120361 25.39791748 -16.02240723 25.79583496 -15.51879883 26.20581055 C-13.28103584 28.03020346 -11.04675297 29.85881053 -8.8125 31.6875 C-8.04357422 32.31333984 -7.27464844 32.93917969 -6.48242188 33.58398438 C4.81522303 42.84514393 4.81522303 42.84514393 5.5 47.125 C5 50 5 50 4 51.875 C0.7549663 53.70033145 -2.43094196 53.59370564 -6 53 C-13.77507453 49.11246273 -19.55838637 41.62047274 -25 35 C-25.10957031 36.13179687 -25.21914062 37.26359375 -25.33203125 38.4296875 C-25.49147061 39.91153564 -25.65166618 41.39330256 -25.8125 42.875 C-25.88275391 43.62136719 -25.95300781 44.36773437 -26.02539062 45.13671875 C-26.24710223 47.10551777 -26.61579339 49.05636658 -27 51 C-30 53 -30 53 -33.5625 52.875 C-37 52 -37 52 -38.19866943 50.21742249 C-39.0473577 47.86895293 -39.2534787 46.13577413 -39.25878906 43.64624023 C-39.26509338 42.7953331 -39.27139771 41.94442596 -39.27789307 41.06773376 C-39.2738446 40.15721756 -39.26979614 39.24670135 -39.265625 38.30859375 C-39.26753845 37.36693863 -39.2694519 36.42528351 -39.27142334 35.45509338 C-39.27278275 33.46721122 -39.26910334 31.47932012 -39.26074219 29.49145508 C-39.25002734 26.44527315 -39.26065192 23.39967937 -39.2734375 20.35351562 C-39.2721161 18.4218737 -39.2695541 16.49023213 -39.265625 14.55859375 C-39.26967346 13.64605331 -39.27372192 12.73351288 -39.27789307 11.7933197 C-39.27158875 10.94556473 -39.26528442 10.09780975 -39.25878906 9.22436523 C-39.25719788 8.47920151 -39.25560669 7.73403778 -39.25396729 6.96629333 C-39 5 -39 5 -37 2 C-34 1.625 -34 1.625 -31 2 C-27.57275559 7.14086661 -27.8984403 12.00797796 -28 18 C-21.76475992 13.35051234 -15.97280921 8.33473938 -10.28515625 3.0390625 C-6.76327174 -0.10354214 -4.68257469 -0.29266092 0 0 Z " fill="#F7A62B" transform="translate(207,14)"/>
<path d="M0 0 C4.55850855 3.57288508 6.88408559 7.08062567 8.05859375 12.69921875 C8.65839307 17.69139465 7.94277677 21.61947611 5.5625 26.125 C2.44099422 29.85346523 -0.84184521 32.09990371 -5.6875 32.8125 C-8.02079961 32.82504462 -10.35420592 32.82603419 -12.6875 32.8125 C-12.71328125 33.84890625 -12.7390625 34.8853125 -12.765625 35.953125 C-12.82191951 37.32295801 -12.87926655 38.69274805 -12.9375 40.0625 C-12.95876953 41.08537109 -12.95876953 41.08537109 -12.98046875 42.12890625 C-13.14537174 45.52590782 -13.48134125 47.53069072 -15.5078125 50.30078125 C-17.6875 51.8125 -17.6875 51.8125 -21.3125 51.75 C-24.6875 50.8125 -24.6875 50.8125 -26.6875 47.8125 C-27.1390883 43.62095779 -27.01903059 39.40064471 -27 35.1875 C-26.99653564 33.97376709 -26.99307129 32.76003418 -26.98950195 31.50952148 C-26.68922665 6.52031214 -26.68922665 6.52031214 -20.6875 -0.1875 C-19.635625 0.121875 -19.635625 0.121875 -18.5625 0.4375 C-11.85340151 1.3125998 -6.9511793 -3.07145132 0 0 Z M-10.3125 11 C-12.69302268 13.81904002 -13.37871904 15.21005548 -13.6875 18.8125 C-9.6774066 18.99114631 -9.6774066 18.99114631 -5.6875 18.8125 C-3.36266215 16.92874325 -3.36266215 16.92874325 -3.5 13.8125 C-3.48670391 10.88863397 -3.48670391 10.88863397 -4.6875 8.8125 C-7.87288673 8.4924078 -7.87288673 8.4924078 -10.3125 11 Z " fill="#2CA08F" transform="translate(424.6875,34.1875)"/>
<path d="M0 0 C1.50820313 -0.04350586 1.50820313 -0.04350586 3.046875 -0.08789062 C10.34026652 -0.15076469 10.34026652 -0.15076469 14.28125 2.17578125 C16.125 4.3125 16.125 4.3125 16.75 6.8125 C15.84817273 10.4198091 14.22757547 11.33549073 11.125 13.3125 C7.57421875 13.703125 7.57421875 13.703125 3.8125 13.5625 C2.55824219 13.52640625 1.30398438 13.4903125 0.01171875 13.453125 C-1.41720703 13.38351563 -1.41720703 13.38351563 -2.875 13.3125 C-2.67583984 14.1478125 -2.67583984 14.1478125 -2.47265625 15 C-2.29605469 15.763125 -2.11945313 16.52625 -1.9375 17.3125 C-1.76347656 18.055 -1.58945312 18.7975 -1.41015625 19.5625 C-0.11431515 26.22142071 0.35289237 32.79388946 0.4375 39.5625 C0.46650391 40.35140625 0.49550781 41.1403125 0.52539062 41.953125 C0.56705518 45.74780488 0.5660095 47.68837569 -1.671875 50.85546875 C-3.875 52.3125 -3.875 52.3125 -7.4375 52.375 C-10.875 51.3125 -10.875 51.3125 -12.5715332 49.2277832 C-14.18526477 45.61857386 -14.25413929 42.47899552 -14.16796875 38.60546875 C-14.16372391 37.88007401 -14.15947906 37.15467926 -14.15510559 36.40730286 C-14.13839543 34.10448109 -14.1007596 31.80255447 -14.0625 29.5 C-14.04744316 27.9329554 -14.0337565 26.365897 -14.02148438 24.79882812 C-13.98851731 20.96971043 -13.93678992 17.14125666 -13.875 13.3125 C-15.76412109 13.33183594 -15.76412109 13.33183594 -17.69140625 13.3515625 C-21.20670494 13.38754304 -23.85985851 13.32259432 -26.875 11.3125 C-27.6875 8.1875 -27.6875 8.1875 -27.875 5.3125 C-21.29247012 -1.72399745 -8.97344316 0.08832129 0 0 Z " fill="#2D9F8E" transform="translate(282.875,14.6875)"/>
<path d="M0 0 C2.5625 0.375 2.5625 0.375 4.19287109 2.03344727 C5.89009824 4.93507036 5.97442363 6.86387007 6.0390625 10.21484375 C6.07 11.36146484 6.1009375 12.50808594 6.1328125 13.68945312 C6.15988281 15.48286133 6.15988281 15.48286133 6.1875 17.3125 C6.23952684 19.65500852 6.29420863 21.9974596 6.3515625 24.33984375 C6.37895508 25.49339355 6.40634766 26.64694336 6.43457031 27.83544922 C6.63434374 33.36276811 7.08047112 38.86601668 7.5625 44.375 C8.53082764 44.3558252 9.49915527 44.33665039 10.49682617 44.31689453 C11.61162354 44.29481934 12.7264209 44.27274414 13.875 44.25 C15.04675781 44.22679687 16.21851563 44.20359375 17.42578125 44.1796875 C20.5625 44.375 20.5625 44.375 23.5625 46.375 C24.25 49.6875 24.25 49.6875 23.5625 53.375 C17.40990787 58.97214979 10.76993033 59.73777731 2.73828125 59.6484375 C-1.42719525 59.28978639 -3.51411487 58.37531632 -6.4375 55.375 C-12.18630157 46.36854421 -9.41316935 33.83061455 -8.625 23.6875 C-8.55514893 22.72585937 -8.48529785 21.76421875 -8.41333008 20.7734375 C-6.71241599 1.03267938 -6.71241599 1.03267938 0 0 Z " fill="#F7A72E" transform="translate(103.4375,9.625)"/>
<path d="M0 0 C3.64434053 1.43170521 5.32427591 2.5073144 6.953125 6.10546875 C7.80112225 8.72012694 8.42845985 11.31150522 9 14 C9.2165625 14.95261719 9.433125 15.90523437 9.65625 16.88671875 C10.67557332 21.80227133 11.51194299 26.0861853 10 31 C8 33 8 33 4.5625 33.3125 C1 33 1 33 -0.9375 31.5 C-1.4634375 30.7575 -1.4634375 30.7575 -2 30 C-2.763125 30.33 -3.52625 30.66 -4.3125 31 C-9.26766719 32.34377415 -13.89924127 32.64438809 -19 32 C-22.61691275 29.90219061 -23.68291409 28.95125774 -25 25 C-25.78065572 18.51159918 -24.90187285 13.31387656 -21 8 C-14.22109495 1.07372745 -9.73652005 -0.92139385 0 0 Z M-8 11 C-11.01704885 14.1999003 -12.49890042 16.61537866 -13 21 C-9.64501065 19.61172854 -7.84949545 18.14414226 -6 15 C-6 13.68 -6 12.36 -6 11 C-6.66 11 -7.32 11 -8 11 Z " fill="#F5A730" transform="translate(241,30)"/>
<path d="M0 0 C0.93328125 -0.03738281 1.8665625 -0.07476563 2.828125 -0.11328125 C6.78798262 0.46375682 8.75375602 1.66084509 11.75 4.3125 C12.82801246 7.04149592 13.50861654 9.23795688 14.0625 12.0625 C14.21783203 12.74054687 14.37316406 13.41859375 14.53320312 14.1171875 C17.30707453 26.64127641 17.30707453 26.64127641 15.75 31.3125 C13.75 33.3125 13.75 33.3125 10.25 33.8125 C6.75 33.3125 6.75 33.3125 4.8125 31.8125 C4.2865625 31.07 4.2865625 31.07 3.75 30.3125 C2.986875 30.6425 2.22375 30.9725 1.4375 31.3125 C-3.51518076 32.65559987 -8.15685807 33.09546398 -13.25 32.3125 C-16.14683868 30.1109026 -17.64297231 28.52655538 -19.25 25.3125 C-20.06903684 18.8407663 -19.13541881 13.60396817 -15.25 8.3125 C-10.47731163 3.43605753 -6.95121117 0.18042761 0 0 Z M-2.25 11.3125 C-5.26704885 14.5124003 -6.74890042 16.92787866 -7.25 21.3125 C-3.54519022 20.16533304 -3.54519022 20.16533304 -0.9375 17.4375 C-0.04478648 15.05044466 -0.04478648 15.05044466 -0.25 11.3125 C-0.91 11.3125 -1.57 11.3125 -2.25 11.3125 Z " fill="#DC3B27" transform="translate(74.25,29.6875)"/>
<path d="M0 0 C0.4125 0.45375 0.825 0.9075 1.25 1.375 C3.06408095 3.05950374 4.75285627 3.99265971 7 5 C6.34 5 5.68 5 5 5 C5.92039062 6.64742187 5.92039062 6.64742187 6.859375 8.328125 C7.95858612 11.26366528 8.14782769 12.55986904 7.13867188 15.56445312 C5.62360165 18.38227762 3.98784581 21.06389485 2.25 23.75 C1.10571349 25.59669453 -0.03506233 27.44557025 -1.171875 29.296875 C-1.6884668 30.10479492 -2.20505859 30.91271484 -2.73730469 31.74511719 C-3.92521063 33.86644341 -4.54999211 35.62488285 -5 38 C-3.824375 38.0928125 -3.824375 38.0928125 -2.625 38.1875 C-1.75875 38.455625 -0.8925 38.72375 0 39 C1.3125 41.5625 1.3125 41.5625 2 44 C-0.62289302 46.87269236 -2.56290726 47.88432071 -6.5234375 48.203125 C-10.76024977 48.27277123 -14.18604987 48.30323632 -18.1875 46.8125 C-20 45 -20 45 -20.3125 42.3125 C-20.209375 41.549375 -20.10625 40.78625 -20 40 C-18.02 39.01 -16.04 38.02 -14 37 C-16.05366049 30.26855729 -18.74396731 24.06546947 -21.79296875 17.72265625 C-23.3283571 14.2593369 -22.99808608 12.54875052 -22 9 C-21.67 8.34 -21.34 7.68 -21 7 C-18.03 7.495 -18.03 7.495 -15 8 C-14.34 6.68 -13.68 5.36 -13 4 C-12.39671875 4.04640625 -11.7934375 4.0928125 -11.171875 4.140625 C-5.91586667 4.47810312 -5.91586667 4.47810312 -1.4375 2 C-0.963125 1.34 -0.48875 0.68 0 0 Z " fill="#E23824" transform="translate(373,32)"/>
<path d="M0 0 C3.49358666 1.66211933 4.71013244 3.50427503 6.17578125 7.03515625 C7.22894314 14.05623549 5.00721407 19.15265749 1.17578125 25.03515625 C-3.83854434 29.81625739 -7.19087245 30.32456224 -13.9296875 30.25390625 C-19.07290254 29.86521524 -22.89299408 28.19389105 -27.32421875 25.53515625 C-29.88915081 21.26026949 -29.46790241 16.86948875 -28.82421875 12.03515625 C-27.24789232 6.27171272 -23.92918571 2.42949151 -19.0234375 -0.8984375 C-12.96649266 -3.83546404 -6.12599583 -2.04835008 0 0 Z M-11.82421875 8.03515625 C-15.3259894 11.88419173 -15.3259894 11.88419173 -15.82421875 17.03515625 C-13.47887924 17.80471761 -13.47887924 17.80471761 -10.82421875 18.03515625 C-8.58645747 16.51667538 -7.94602681 15.42272734 -7.13671875 12.84765625 C-7.03359375 12.24953125 -6.93046875 11.65140625 -6.82421875 11.03515625 C-8.47421875 10.04515625 -10.12421875 9.05515625 -11.82421875 8.03515625 Z " fill="#F7A72E" transform="translate(158.82421875,34.96484375)"/>
<path d="M0 0 C1.3921875 0.3403125 1.3921875 0.3403125 2.8125 0.6875 C3.1425 2.0075 3.4725 3.3275 3.8125 4.6875 C4.328125 4.5225 4.84375 4.3575 5.375 4.1875 C9.90132088 3.25902392 13.62381722 3.2679649 18 4.8125 C21.38635631 7.07007087 22.99468481 9.05186963 24.8125 12.6875 C24.5625 15.5625 24.5625 15.5625 23.8125 17.6875 C19.44085032 18.45896759 16.12346276 18.69264676 11.8125 17.6875 C11.61914062 18.55632813 11.42578125 19.42515625 11.2265625 20.3203125 C10.96617187 21.47273438 10.70578125 22.62515625 10.4375 23.8125 C10.18226563 24.94945313 9.92703125 26.08640625 9.6640625 27.2578125 C7.49128788 36.00871212 7.49128788 36.00871212 4.8125 38.6875 C-0.87098624 39.2287844 -0.87098624 39.2287844 -3.1875 38.6875 C-5.6613897 36.25215265 -6.17095828 34.8299981 -6.57568359 31.34350586 C-6.57906738 30.04292236 -6.58245117 28.74233887 -6.5859375 27.40234375 C-6.58880768 26.70484512 -6.59167786 26.0073465 -6.59463501 25.28871155 C-6.5966711 23.81868678 -6.59117302 22.34863463 -6.57861328 20.87866211 C-6.56252702 18.62877967 -6.57848787 16.38068678 -6.59765625 14.13085938 C-6.59567421 12.70051687 -6.59183134 11.27017548 -6.5859375 9.83984375 C-6.58255371 8.54038818 -6.57916992 7.24093262 -6.57568359 5.90209961 C-6.1875 2.6875 -6.1875 2.6875 -4.86181641 0.72094727 C-3.1875 -0.3125 -3.1875 -0.3125 0 0 Z " fill="#28A290" transform="translate(309.1875,27.3125)"/>
<path d="M0 0 C3.56069497 3.56069497 6.19625965 6.5812143 6.6328125 11.75 C6.39230806 16.0507853 5.99421793 17.88078207 2.875 21 C2.070625 21.474375 1.26625 21.94875 0.4375 22.4375 C0.4375 19.77083333 0.4375 17.10416667 0.4375 14.4375 C-0.19724075 13.08867592 -0.86098848 11.7528341 -1.5625 10.4375 C-2.5525 10.4375 -3.5425 10.4375 -4.5625 10.4375 C-4.995625 11.530625 -5.42875 12.62375 -5.875 13.75 C-7.05745641 16.53158793 -8.17050043 18.50111939 -10.5625 20.4375 C-11.8825 19.7775 -13.2025 19.1175 -14.5625 18.4375 C-12.83653177 17.28685451 -11.10855039 16.13919026 -9.375 15 C-8.776875 14.484375 -8.17875 13.96875 -7.5625 13.4375 C-7.5625 12.4475 -7.5625 11.4575 -7.5625 10.4375 C-10.08725462 9.17512269 -11.87450466 9.33893596 -14.6875 9.375 C-15.59757812 9.38402344 -16.50765625 9.39304687 -17.4453125 9.40234375 C-18.14398438 9.41394531 -18.84265625 9.42554688 -19.5625 9.4375 C-19.5625 12.4075 -19.5625 15.3775 -19.5625 18.4375 C-20.2225 18.4375 -20.8825 18.4375 -21.5625 18.4375 C-21.64376087 16.35481407 -21.70180839 14.27121342 -21.75 12.1875 C-21.78480469 11.02734375 -21.81960937 9.8671875 -21.85546875 8.671875 C-21.54232934 5.21481593 -20.90540892 3.92184437 -18.5625 1.4375 C-19.8825 1.4375 -21.2025 1.4375 -22.5625 1.4375 C-22.5625 0.7775 -22.5625 0.1175 -22.5625 -0.5625 C-15.10283307 -1.94433589 -7.09163342 -3.11036553 0 0 Z " fill="#D93B2A" transform="translate(40.5625,9.5625)"/>
<path d="M0 0 C0.33 1.32 0.66 2.64 1 4 C1.66 4 2.32 4 3 4 C3 4.99 3 5.98 3 7 C0 8.5 0 8.5 -3 10 C-2.938125 10.7425 -2.87625 11.485 -2.8125 12.25 C-3.03239994 15.47519908 -3.78252188 16.69723426 -6 19 C-6.66 19 -7.32 19 -8 19 C-7.16992188 16.02148438 -7.16992188 16.02148438 -6.33984375 13.04296875 C-5.80436183 10.80755841 -5.80436183 10.80755841 -7 8 C-11.52847472 10.20304176 -13.10882463 12.36662035 -15 17 C-15.68636625 19.23525035 -15.68636625 19.23525035 -16 21 C-14.68 21 -13.36 21 -12 21 C-11.67 22.65 -11.34 24.3 -11 26 C-13.3125 27.5625 -13.3125 27.5625 -16 29 C-16.99 28.67 -17.98 28.34 -19 28 C-20.299375 27.7834375 -20.299375 27.7834375 -21.625 27.5625 C-22.40875 27.376875 -23.1925 27.19125 -24 27 C-25.32229189 24.35541621 -25.09677194 22.32238699 -25.0625 19.375 C-25.05347656 18.37210938 -25.04445312 17.36921875 -25.03515625 16.3359375 C-25.02355469 15.56507812 -25.01195312 14.79421875 -25 14 C-24.01 13.67 -23.02 13.34 -22 13 C-22 14.32 -22 15.64 -22 17 C-21.34 17 -20.68 17 -20 17 C-19.8453125 15.3603125 -19.8453125 15.3603125 -19.6875 13.6875 C-19 10 -19 10 -17.75 8.0625 C-15.41628148 6.64559947 -13.67863922 6.78281304 -11 7 C-10.896875 6.21625 -10.79375 5.4325 -10.6875 4.625 C-9.21656199 -0.99130878 -4.9046656 -0.18508172 0 0 Z " fill="#E23824" transform="translate(82,31)"/>
<path d="M0 0 C0.99 0 1.98 0 3 0 C3 0.66 3 1.32 3 2 C5.64 2 8.28 2 11 2 C11 1.34 11 0.68 11 0 C11.66 0 12.32 0 13 0 C13 2.8125 13 2.8125 12 6 C8.52202672 8.12889396 5.05110111 9 1 9 C1 9.66 1 10.32 1 11 C0.01 11.66 -0.98 12.32 -2 13 C-1.69964844 13.50789063 -1.39929688 14.01578125 -1.08984375 14.5390625 C0.92717327 18.19020517 2.05415659 20.24180774 1.75 24.5 C1.5025 25.325 1.255 26.15 1 27 C-0.65 26.67 -2.3 26.34 -4 26 C-4 25.34 -4 24.68 -4 24 C-5.65 23.67 -7.3 23.34 -9 23 C-9.33 22.01 -9.66 21.02 -10 20 C-8.68 20 -7.36 20 -6 20 C-6 19.01 -6 18.02 -6 17 C-7.32 17.33 -8.64 17.66 -10 18 C-9.67 16.68 -9.34 15.36 -9 14 C-8.01 14 -7.02 14 -6 14 C-6 13.34 -6 12.68 -6 12 C-7.32 11.34 -8.64 10.68 -10 10 C-9.01 8.02 -8.02 6.04 -7 4 C-5.68 4 -4.36 4 -3 4 C-3 3.34 -3 2.68 -3 2 C-2.34 2 -1.68 2 -1 2 C-0.67 1.34 -0.34 0.68 0 0 Z " fill="#F7A729" transform="translate(142,36)"/>
<path d="M0 0 C1.32 0.33 2.64 0.66 4 1 C3.34 2.32 2.68 3.64 2 5 C3.32 5 4.64 5 6 5 C6 6.32 6 7.64 6 9 C1.545 9.495 1.545 9.495 -3 10 C-3 10.66 -3 11.32 -3 12 C-3.66 11.67 -4.32 11.34 -5 11 C-5 13.48349306 -4.82158241 15.73543415 -4.5 18.1875 C-4.335 19.445625 -4.17 20.70375 -4 22 C-5.98 22.99 -5.98 22.99 -8 24 C-8 23.01 -8 22.02 -8 21 C-7.34 21 -6.68 21 -6 21 C-6 20.34 -6 19.68 -6 19 C-7.32 19 -8.64 19 -10 19 C-10 19.66 -10 20.32 -10 21 C-11.65 21 -13.3 21 -15 21 C-14.07568143 13.14329214 -12.70274985 9.27162211 -6.8515625 4.0390625 C-5 3 -5 3 -2.7734375 3.3359375 C-2.18820313 3.55507813 -1.60296875 3.77421875 -1 4 C-0.67 2.68 -0.34 1.36 0 0 Z " fill="#F8A629" transform="translate(232,31)"/>
<path d="M0 0 C0.66 0.66 1.32 1.32 2 2 C2.66 1.01 3.32 0.02 4 -1 C7.375 -0.3125 7.375 -0.3125 11 1 C12.4375 3.625 12.4375 3.625 13 6 C10.37710698 8.87269236 8.43709274 9.88432071 4.4765625 10.203125 C0.23975023 10.27277123 -3.18604987 10.30323632 -7.1875 8.8125 C-9 7 -9 7 -9.3125 4.3125 C-9.209375 3.549375 -9.10625 2.78625 -9 2 C-3.375 -1.125 -3.375 -1.125 0 0 Z " fill="#F5C455" transform="translate(362,70)"/>
<path d="M0 0 C3.47064731 1.5532967 6.22929462 3.6229487 9.1875 6 C10.50814453 7.051875 10.50814453 7.051875 11.85546875 8.125 C14.57390753 10.50177708 14.94320072 11.33260843 15.25 14.9375 C15 18 15 18 14 19.875 C10.74686316 21.70488947 7.68609891 21.18128355 4 21 C5.32 20.67 6.64 20.34 8 20 C8 19.34 8 18.68 8 18 C7.01 18 6.02 18 5 18 C5.33 17.01 5.66 16.02 6 15 C6.66 15 7.32 15 8 15 C8.33 14.01 8.66 13.02 9 12 C8.34 12 7.68 12 7 12 C7 11.34 7 10.68 7 10 C6.34 10 5.68 10 5 10 C5.33 8.68 5.66 7.36 6 6 C4.35 6 2.7 6 1 6 C0.67 4.02 0.34 2.04 0 0 Z " fill="#F3A832" transform="translate(197,46)"/>
<path d="M0 0 C3.49620291 1.16358853 4.68125833 1.86846111 7.3125 4.625 C8.86476691 8.29399451 9.00313151 10.92960613 8.6875 14.875 C8.0275 14.545 7.3675 14.215 6.6875 13.875 C6.30000787 11.55004723 5.96991883 9.2150417 5.6875 6.875 C5.3575 5.885 5.0275 4.895 4.6875 3.875 C4.06875 4.060625 3.45 4.24625 2.8125 4.4375 C0.6875 4.875 0.6875 4.875 -1.3125 3.875 C-1.3125 3.215 -1.3125 2.555 -1.3125 1.875 C-1.9725 1.875 -2.6325 1.875 -3.3125 1.875 C-3.3125 2.535 -3.3125 3.195 -3.3125 3.875 C-5.9525 3.875 -8.5925 3.875 -11.3125 3.875 C-11.3125 3.215 -11.3125 2.555 -11.3125 1.875 C-12.3025 1.875 -13.2925 1.875 -14.3125 1.875 C-14.6425 3.195 -14.9725 4.515 -15.3125 5.875 C-15.3125 5.215 -15.3125 4.555 -15.3125 3.875 C-15.9725 3.875 -16.6325 3.875 -17.3125 3.875 C-17.3125 4.535 -17.3125 5.195 -17.3125 5.875 C-18.9625 6.205 -20.6125 6.535 -22.3125 6.875 C-18.70364835 -3.22978462 -8.47204749 -2.08369946 0 0 Z " fill="#EFA842" transform="translate(156.3125,34.125)"/>
<path d="M0 0 C0.78375 0.04125 1.5675 0.0825 2.375 0.125 C1.385 0.455 0.395 0.785 -0.625 1.125 C-0.2846875 2.23875 -0.2846875 2.23875 0.0625 3.375 C0.375 6.125 0.375 6.125 -1 8.4375 C-1.53625 8.994375 -2.0725 9.55125 -2.625 10.125 C-2.955 10.125 -3.285 10.125 -3.625 10.125 C-5.29529512 15.29141891 -5.98053008 19.96349391 -6.1875 25.375 C-6.50431937 32.76295812 -6.50431937 32.76295812 -7.625 36.125 C-7.84825814 38.18393621 -8.03205759 40.24733653 -8.1875 42.3125 C-8.27128906 43.39917969 -8.35507813 44.48585937 -8.44140625 45.60546875 C-8.50199219 46.43691406 -8.56257813 47.26835938 -8.625 48.125 C-8.955 48.125 -9.285 48.125 -9.625 48.125 C-9.91088801 39.85013039 -9.474405 31.68345679 -8.8125 23.4375 C-8.74240723 22.47642334 -8.67231445 21.51534668 -8.60009766 20.52514648 C-6.86600544 0.32695264 -6.86600544 0.32695264 0 0 Z " fill="#EDA647" transform="translate(103.625,9.875)"/>
<path d="M0 0 C1.3921875 0.3403125 1.3921875 0.3403125 2.8125 0.6875 C2.8125 1.3475 2.8125 2.0075 2.8125 2.6875 C2.008125 2.501875 1.20375 2.31625 0.375 2.125 C-0.8934375 1.9084375 -0.8934375 1.9084375 -2.1875 1.6875 C-3.5496182 2.82257808 -3.5496182 2.82257808 -3.30102539 5.83032227 C-3.30086633 7.22152697 -3.29517506 8.61273761 -3.28515625 10.00390625 C-3.2837413 10.73496078 -3.28232635 11.46601532 -3.28086853 12.21922302 C-3.27525408 14.56285632 -3.26269922 16.90639539 -3.25 19.25 C-3.24498686 20.83528508 -3.24042363 22.42057166 -3.23632812 24.00585938 C-3.22527997 27.8997761 -3.20800572 31.79362205 -3.1875 35.6875 C-1.5375 36.3475 0.1125 37.0075 1.8125 37.6875 C1.8125 38.0175 1.8125 38.3475 1.8125 38.6875 C-0.5 38.9375 -0.5 38.9375 -3.1875 38.6875 C-5.71208349 36.29008349 -6.17098236 34.82979061 -6.57568359 31.34350586 C-6.57906738 30.04292236 -6.58245117 28.74233887 -6.5859375 27.40234375 C-6.58880768 26.70484512 -6.59167786 26.0073465 -6.59463501 25.28871155 C-6.5966711 23.81868678 -6.59117302 22.34863463 -6.57861328 20.87866211 C-6.56252702 18.62877967 -6.57848787 16.38068678 -6.59765625 14.13085938 C-6.59567421 12.70051687 -6.59183134 11.27017548 -6.5859375 9.83984375 C-6.58255371 8.54038818 -6.57916992 7.24093262 -6.57568359 5.90209961 C-6.1875 2.6875 -6.1875 2.6875 -4.86181641 0.72094727 C-3.1875 -0.3125 -3.1875 -0.3125 0 0 Z " fill="#3A9386" transform="translate(309.1875,27.3125)"/>
<path d="M0 0 C1 2 1 2 1 6 C1.66 6.33 2.32 6.66 3 7 C3 7.66 3 8.32 3 9 C2.01 9.33 1.02 9.66 0 10 C-0.33 10.99 -0.66 11.98 -1 13 C0.32 12.67 1.64 12.34 3 12 C3 12.99 3 13.98 3 15 C2.01 15.33 1.02 15.66 0 16 C0.33 16.66 0.66 17.32 1 18 C1.66 18.165 2.32 18.33 3 18.5 C3.66 18.665 4.32 18.83 5 19 C5.33 19.66 5.66 20.32 6 21 C8.52733235 21.65555119 8.52733235 21.65555119 11 22 C11 22.66 11 23.32 11 24 C6.47603797 23.33963953 2.83587524 22.52881903 -1.0625 20.0625 C-3.96182913 15.47968944 -3.74112231 11.28049648 -3 6 C-1.5 2.3125 -1.5 2.3125 0 0 Z " fill="#F4A73F" transform="translate(133,41)"/>
<path d="M0 0 C10.39411897 8.23354368 10.39411897 8.23354368 11.37890625 14.35546875 C11.66321707 20.41770917 10.56552759 24.11013359 7 29 C6.01 29.66 5.02 30.32 4 31 C4 29.35 4 27.7 4 26 C4.99 26 5.98 26 7 26 C7 25.01 7 24.02 7 23 C7.66 23 8.32 23 9 23 C8.88512252 21.41590006 8.75765492 19.83271037 8.625 18.25 C8.55539063 17.36828125 8.48578125 16.4865625 8.4140625 15.578125 C8.00149945 13.00933618 7.28839043 11.24158985 6 9 C5.34 9 4.68 9 4 9 C3.566875 7.88625 3.566875 7.88625 3.125 6.75 C2.17631737 4.43099801 1.13440221 2.23067324 0 0 Z " fill="#C74437" transform="translate(40,32)"/>
<path d="M0 0 C1.65 1.32 3.3 2.64 5 4 C5.33 3.34 5.66 2.68 6 2 C6.99 2 7.98 2 9 2 C8.34 3.32 7.68 4.64 7 6 C0.47692308 6.36923077 0.47692308 6.36923077 -1.9375 4.5 C-2.288125 4.005 -2.63875 3.51 -3 3 C-3.763125 3.33 -4.52625 3.66 -5.3125 4 C-10.16365548 5.31556759 -15.0052139 5.72922309 -20 5 C-21.83203125 3.48046875 -21.83203125 3.48046875 -23 2 C-20.625 1.375 -20.625 1.375 -18 1 C-17.34 1.66 -16.68 2.32 -16 3 C-13.42938689 3.64767793 -13.42938689 3.64767793 -11 4 C-11 3.34 -11 2.68 -11 2 C-10.28972656 1.93941406 -9.57945312 1.87882812 -8.84765625 1.81640625 C-7.46900391 1.69072266 -7.46900391 1.69072266 -6.0625 1.5625 C-5.14597656 1.48128906 -4.22945312 1.40007813 -3.28515625 1.31640625 C-1.03840268 1.23955024 -1.03840268 1.23955024 0 0 Z " fill="#EDA943" transform="translate(242,57)"/>
<path d="M0 0 C2.51570636 0.97382182 3.73944098 1.46151135 4.9375 3.9375 C5 6 5 6 3.75 7.6875 C0.46718894 10.14960829 -2.5999866 10.16111842 -6.5625 10.1875 C-8.01849609 10.20876953 -8.01849609 10.20876953 -9.50390625 10.23046875 C-12 10 -12 10 -14 8 C-7.565 7.505 -7.565 7.505 -1 7 C-1 6.34 -1 5.68 -1 5 C-1.99 4.34 -2.98 3.68 -4 3 C-2.68 2.67 -1.36 2.34 0 2 C0 1.34 0 0.68 0 0 Z " fill="#EEC35F" transform="translate(370,70)"/>
<path d="M0 0 C1.65 0 3.3 0 5 0 C5 0.66 5 1.32 5 2 C5.66 2 6.32 2 7 2 C6.67 3.32 6.34 4.64 6 6 C5.01 5.01 4.02 4.02 3 3 C2.89042969 4.13179687 2.78085938 5.26359375 2.66796875 6.4296875 C2.50852939 7.91153564 2.34833382 9.39330256 2.1875 10.875 C2.11724609 11.62136719 2.04699219 12.36773437 1.97460938 13.13671875 C1.75289777 15.10551777 1.38420661 17.05636658 1 19 C-2.22791555 21.1519437 -3.28400809 21.20086443 -7 21 C-6.34 20.34 -5.68 19.68 -5 19 C-4.01 19 -3.02 19 -2 19 C-0.81968762 15.15158652 -0.66764649 11.241721 -0.4375 7.25 C-0.39431641 6.55261719 -0.35113281 5.85523438 -0.30664062 5.13671875 C-0.20110404 3.42468078 -0.1001009 1.71236439 0 0 Z " fill="#EAAE57" transform="translate(179,46)"/>
<path d="M0 0 C0.66 0.33 1.32 0.66 2 1 C2.74500538 6.98239324 2.74500538 6.98239324 0.84570312 9.57666016 C-0.78712048 11.09778051 -2.47263945 12.46330446 -4.25 13.8125 C-5.12978516 14.52696289 -5.12978516 14.52696289 -6.02734375 15.25585938 C-8.87776979 17.53299748 -11.6234727 19.55411083 -15 21 C-14.67 19.02 -14.34 17.04 -14 15 C-12.68 15 -11.36 15 -10 15 C-9.67 14.34 -9.34 13.68 -9 13 C-8.01 13 -7.02 13 -6 13 C-5.67 11.68 -5.34 10.36 -5 9 C-4.01 9.33 -3.02 9.66 -2 10 C-1.34 6.7 -0.68 3.4 0 0 Z " fill="#F0A844" transform="translate(207,15)"/>
<path d="M0 0 C3.16842693 0.25689948 4.60962957 0.58270747 6.8125 2.9375 C8.55159304 7.42252941 8.98103106 11.26670417 8 16 C6.22213056 19.43942966 4.23492789 21.85510216 1 24 C-2.12342649 24.62270845 -4.86769894 24.51139609 -8 24 C-8.33 23.34 -8.66 22.68 -9 22 C-8.40832031 21.97421875 -7.81664062 21.9484375 -7.20703125 21.921875 C-1.95018101 21.54454807 1.17748357 20.94197007 5 17 C6.60697507 13.78604986 6.6204026 10.47558877 6 7 C3.68726558 4.1028059 3.68726558 4.1028059 1 2 C0.67 1.34 0.34 0.68 0 0 Z " fill="#C5493E" transform="translate(368,13)"/>
<path d="M0 0 C1.19641106 4.23991287 1.08878571 8.33944049 1.02734375 12.7109375 C1.01469611 14.44791467 1.00233525 16.18489394 0.99023438 17.921875 C0.96544242 20.64948144 0.93747577 23.37697734 0.90405273 26.10449219 C0.87374204 28.74414756 0.85604225 31.38366299 0.83984375 34.0234375 C0.82638412 34.83299896 0.8129245 35.64256042 0.79905701 36.47665405 C0.77887784 41.06012187 1.24759367 44.68272769 3 49 C2.01 48.67 1.02 48.34 0 48 C-0.92142415 45.23572755 -1.12637636 43.59363983 -1.12939453 40.74389648 C-1.13254669 39.88968613 -1.13569885 39.03547577 -1.13894653 38.15538025 C-1.1369223 37.2365657 -1.13489807 36.31775116 -1.1328125 35.37109375 C-1.13376923 34.42565201 -1.13472595 33.48021027 -1.13571167 32.50611877 C-1.13639209 30.50806614 -1.13454741 28.51001128 -1.13037109 26.51196289 C-1.12501498 23.44607609 -1.13032381 20.3803354 -1.13671875 17.31445312 C-1.13605806 15.37499968 -1.13477709 13.43554632 -1.1328125 11.49609375 C-1.13483673 10.57525497 -1.13686096 9.6544162 -1.13894653 8.70567322 C-1.13579437 7.85461502 -1.13264221 7.00355682 -1.12939453 6.12670898 C-1.12859894 5.37630844 -1.12780334 4.6259079 -1.12698364 3.85276794 C-1 2 -1 2 0 0 Z " fill="#EEAD4E" transform="translate(169,17)"/>
<path d="M0 0 C0.66 0 1.32 0 2 0 C2.10823773 2.24893954 2.18569645 4.49937575 2.25 6.75 C2.29640625 8.00296875 2.3428125 9.2559375 2.390625 10.546875 C2 14 2 14 0.21875 16.46875 C-2 18 -2 18 -5.75 17.75 C-6.8225 17.5025 -7.895 17.255 -9 17 C-9 16.01 -9 15.02 -9 14 C-6.36 14.66 -3.72 15.32 -1 16 C-0.67 10.72 -0.34 5.44 0 0 Z " fill="#3C9788" transform="translate(409,68)"/>
<path d="M0 0 C0.8353125 0.37125 0.8353125 0.37125 1.6875 0.75 C0.6975 0.75 -0.2925 0.75 -1.3125 0.75 C-1.250625 1.801875 -1.250625 1.801875 -1.1875 2.875 C-1.32918332 6.13371628 -2.17984686 8.7059947 -3.3125 11.75 C-4.9625 10.43 -6.6125 9.11 -8.3125 7.75 C-7.98035849 4.65001254 -7.2579988 3.6954988 -5 1.4375 C-2.3125 -0.25 -2.3125 -0.25 0 0 Z " fill="#D33D2B" transform="translate(15.3125,10.25)"/>
<path d="M0 0 C0.9796875 -0.01417969 1.959375 -0.02835938 2.96875 -0.04296875 C5.5 0.1875 5.5 0.1875 7.5 2.1875 C2.055 1.6925 2.055 1.6925 -3.5 1.1875 C-3.83 2.8375 -4.16 4.4875 -4.5 6.1875 C-4.83 5.5275 -5.16 4.8675 -5.5 4.1875 C-9.63126473 6.10901848 -13.03258866 8.23000209 -16.5 11.1875 C-15.13310446 8.03680578 -13.64342115 6.17858226 -11 4 C-10.3915625 3.49082031 -9.783125 2.98164062 -9.15625 2.45703125 C-6.04493214 0.07217676 -3.87124594 0.02546872 0 0 Z " fill="#EAA747" transform="translate(235.5,29.8125)"/>
<path d="M0 0 C0.66 0.33 1.32 0.66 2 1 C2.33 0.34 2.66 -0.32 3 -1 C3.33 0.32 3.66 1.64 4 3 C5.65 2.67 7.3 2.34 9 2 C8.67 2.66 8.34 3.32 8 4 C1.47692308 4.36923077 1.47692308 4.36923077 -0.9375 2.5 C-1.288125 2.005 -1.63875 1.51 -2 1 C-2.763125 1.33 -3.52625 1.66 -4.3125 2 C-9.25174651 3.33945668 -13.91463109 3.16287658 -19 3 C-19 2.67 -19 2.34 -19 2 C-18.15695313 1.86722656 -17.31390625 1.73445313 -16.4453125 1.59765625 C-15.34960938 1.42105469 -14.25390625 1.24445312 -13.125 1.0625 C-11.48917969 0.80146484 -11.48917969 0.80146484 -9.8203125 0.53515625 C-3.02047244 -0.75511811 -3.02047244 -0.75511811 0 0 Z " fill="#C54939" transform="translate(80,59)"/>
<path d="M0 0 C0.66 0 1.32 0 2 0 C2 0.66 2 1.32 2 2 C3.65 1.67 5.3 1.34 7 1 C6.95875 1.78375 6.9175 2.5675 6.875 3.375 C6.71271266 6.16116119 6.71271266 6.16116119 9 8 C9.99 7.01 10.98 6.02 12 5 C12 6.65 12 8.3 12 10 C12.66 10.33 13.32 10.66 14 11 C14 11.66 14 12.32 14 13 C9.76090342 11.6145759 7.29341975 9.67287988 4.1875 6.5 C3.39730469 5.7059375 2.60710937 4.911875 1.79296875 4.09375 C0 2 0 2 0 0 Z " fill="#F0A944" transform="translate(187,53)"/>
<path d="M0 0 C2.81403301 0.28050806 5.62567253 0.57381304 8.4375 0.875 C9.23994141 0.95363281 10.04238281 1.03226563 10.86914062 1.11328125 C12.92170994 1.33845763 14.96293009 1.66222587 17 2 C17.33 2.66 17.66 3.32 18 4 C16.39658445 4.33692785 14.79223445 4.66941093 13.1875 5 C12.29417969 5.185625 11.40085937 5.37125 10.48046875 5.5625 C8 6 8 6 5 6 C5 5.34 5 4.68 5 4 C3.02 3.34 1.04 2.68 -1 2 C-0.67 1.34 -0.34 0.68 0 0 Z " fill="#D1412B" transform="translate(350,9)"/>
<path d="M0 0 C-0.33 2.31 -0.66 4.62 -1 7 C-1.66 7 -2.32 7 -3 7 C-2.67 5.02 -2.34 3.04 -2 1 C-4.93200474 3.85276137 -7.64315404 6.65079784 -10 10 C-10.33 7.03 -10.66 4.06 -11 1 C-10.01 1.495 -10.01 1.495 -9 2 C-8.67 1.67 -8.34 1.34 -8 1 C-5.07175348 0.02391783 -3.04386724 -0.08226668 0 0 Z " fill="#EAAA49" transform="translate(237,40)"/>
<path d="M0 0 C1.16691444 3.48419134 0.85285758 6.10222787 0.1875 9.6875 C-0.06966797 11.14736328 -0.06966797 11.14736328 -0.33203125 12.63671875 C-0.55246094 13.41660156 -0.77289063 14.19648437 -1 15 C-1.99 15.495 -1.99 15.495 -3 16 C-3.33 13.69 -3.66 11.38 -4 9 C-4.66 9 -5.32 9 -6 9 C-5.67 8.01 -5.34 7.02 -5 6 C-4.34 5.67 -3.68 5.34 -3 5 C-1.9590934 3.35857037 -0.95495674 1.69287785 0 0 Z " fill="#379A8A" transform="translate(318,48)"/>
<path d="M0 0 C0.66 0.33 1.32 0.66 2 1 C-0.97 6.61 -3.94 12.22 -7 18 C-7.33 17.01 -7.66 16.02 -8 15 C-7.34 14.01 -6.68 13.02 -6 12 C-5.83300768 8.87478167 -5.83300768 8.87478167 -6 6 C-5.01 6 -4.02 6 -3 6 C-3.33 5.01 -3.66 4.02 -4 3 C-3.01 2.67 -2.02 2.34 -1 2 C-0.67 1.34 -0.34 0.68 0 0 Z " fill="#D23F30" transform="translate(378,45)"/>
<path d="M0 0 C14.78132118 -0.738041 14.78132118 -0.738041 21 4 C18.45297384 5.27351308 17.5717055 4.80191925 14.875 4.0625 C14.15054687 3.86785156 13.42609375 3.67320313 12.6796875 3.47265625 C12.12539063 3.31667969 11.57109375 3.16070312 11 3 C10.67 3.66 10.34 4.32 10 5 C9.67 4.01 9.34 3.02 9 2 C6.03 1.67 3.06 1.34 0 1 C0 0.67 0 0.34 0 0 Z " fill="#CE4433" transform="translate(357,4)"/>
<path d="M0 0 C0.99 0 1.98 0 3 0 C3 0.66 3 1.32 3 2 C4.65 1.34 6.3 0.68 8 0 C7.814375 0.61875 7.62875 1.2375 7.4375 1.875 C6.76313824 4.04160178 6.76313824 4.04160178 8 6 C7.01 6.99 6.02 7.98 5 9 C4.16094435 7.87926138 3.32892169 6.75325453 2.5 5.625 C2.0359375 4.99851562 1.571875 4.37203125 1.09375 3.7265625 C0 2 0 2 0 0 Z " fill="#E13B26" transform="translate(358,64)"/>
<path d="M0 0 C4.29 0 8.58 0 13 0 C13.33 0.66 13.66 1.32 14 2 C10.04 2 6.08 2 2 2 C2 4.97 2 7.94 2 11 C1.34 11 0.68 11 0 11 C0 7.37 0 3.74 0 0 Z " fill="#C84134" transform="translate(19,17)"/>
<path d="M0 0 C0.66 0.33 1.32 0.66 2 1 C1.01 2.485 1.01 2.485 0 4 C-0.63292383 6.11280345 -0.63292383 6.11280345 -1 8 C-2.0828125 7.8453125 -2.0828125 7.8453125 -3.1875 7.6875 C-7.12041589 8.12449065 -8.46321923 10.10082197 -11 13 C-11.66 12.67 -12.32 12.34 -13 12 C-8.84792208 7.7373638 -4.63678779 3.73204871 0 0 Z " fill="#EDA841" transform="translate(199,15)"/>
<path d="M0 0 C0.66 0.33 1.32 0.66 2 1 C1.67 1.66 1.34 2.32 1 3 C1.66 3.33 2.32 3.66 3 4 C2.835 4.61875 2.67 5.2375 2.5 5.875 C1.92365356 7.96063386 1.92365356 7.96063386 2 10 C0.68 9.67 -0.64 9.34 -2 9 C-2.6875 6.1875 -2.6875 6.1875 -3 3 C-1.5625 1.125 -1.5625 1.125 0 0 Z " fill="#2E9D8B" transform="translate(258,17)"/>
<path d="M0 0 C0.33 0.66 0.66 1.32 1 2 C1.515625 1.835 2.03125 1.67 2.5625 1.5 C8.58047487 0.26554362 12.7033255 0.89950761 18 4 C16.125 5.0625 16.125 5.0625 14 6 C13.34 5.67 12.68 5.34 12 5 C12 4.34 12 3.68 12 3 C8.04 3 4.08 3 0 3 C0 2.01 0 1.02 0 0 Z " fill="#3A9185" transform="translate(312,30)"/>
<path d="M0 0 C0.99 0.33 1.98 0.66 3 1 C3.375 4.25 3.375 4.25 3 8 C-1.71794872 12 -1.71794872 12 -5 12 C-4.34 10.35 -3.68 8.7 -3 7 C-1.68 7.33 -0.36 7.66 1 8 C0.67 5.36 0.34 2.72 0 0 Z " fill="#EAA84D" transform="translate(124,55)"/>
<path d="M0 0 C2.875 -0.1875 2.875 -0.1875 6 0 C9.25195722 4.87793583 9.11325659 9.22391379 9 15 C6.14176145 10.71264217 5.19251275 5.9688031 4 1 C2.68 0.67 1.36 0.34 0 0 Z " fill="#EEA947" transform="translate(170,16)"/>
<path d="M0 0 C1.1875 1.6875 1.1875 1.6875 2 4 C0.625 6.75 0.625 6.75 -1 9 C-2.24546405 6.50907189 -1.7767578 5.58919267 -1 3 C-1.78375 3.78375 -2.5675 4.5675 -3.375 5.375 C-4.91666667 6.91666667 -6.45833333 8.45833333 -8 10 C-7.52153935 5.69385411 -6.34073619 3.75119451 -3 1 C-2.01 0.67 -1.02 0.34 0 0 Z " fill="#CC4437" transform="translate(75,38)"/>
<path d="M0 0 C0.99 0.33 1.98 0.66 3 1 C3.94921875 3.328125 3.94921875 3.328125 4.6875 6.25 C4.93886719 7.20390625 5.19023438 8.1578125 5.44921875 9.140625 C5.9703456 11.84604951 6.10521678 14.25434317 6 17 C5.34 17 4.68 17 4 17 C3.77213542 14.94921875 3.54427083 12.8984375 3.31640625 10.84765625 C3.18113386 8.98859771 3.18113386 8.98859771 2 8 C1.95919217 6.00041636 1.95745644 3.99954746 2 2 C1.34 2 0.68 2 0 2 C0 1.34 0 0.68 0 0 Z " fill="#C54D3B" transform="translate(83,33)"/>
<path d="M0 0 C0 0.66 0 1.32 0 2 C0.66 2.66 1.32 3.32 2 4 C-1.28804981 6.91227269 -3.59885603 8.49701212 -8 9 C-8 8.34 -8 7.68 -8 7 C-6.02 6.67 -4.04 6.34 -2 6 C-2 5.34 -2 4.68 -2 4 C-2.66 4 -3.32 4 -4 4 C-4 3.01 -4 2.02 -4 1 C-2 0 -2 0 0 0 Z " fill="#EBAA40" transform="translate(158,56)"/>
<path d="M0 0 C2.475 0.99 2.475 0.99 5 2 C4.67 3.65 4.34 5.3 4 7 C3.01 7 2.02 7 1 7 C0.67 6.01 0.34 5.02 0 4 C-0.66 3.34 -1.32 2.68 -2 2 C-1.34 1.34 -0.68 0.68 0 0 Z " fill="#E53721" transform="translate(37,11)"/>
<path d="M0 0 C0.66 0 1.32 0 2 0 C2.56638908 4.81430721 0.82561627 7.20307814 -2 11 C-4.475 10.01 -4.475 10.01 -7 9 C-5.28354611 7.85569741 -3.55904417 6.72282777 -1.8125 5.625 C-1.214375 5.08875 -0.61625 4.5525 0 4 C0 2.68 0 1.36 0 0 Z " fill="#C84435" transform="translate(33,19)"/>
<path d="M0 0 C2.35171131 0.59861742 4.6859378 1.26924352 7 2 C7.33 2.66 7.66 3.32 8 4 C10.52733235 4.65555119 10.52733235 4.65555119 13 5 C13 5.66 13 6.32 13 7 C3.28056426 5.42163009 3.28056426 5.42163009 0 1 C0 0.67 0 0.34 0 0 Z " fill="#E9AA4C" transform="translate(131,58)"/>
<path d="M0 0 C3.57142857 3.57142857 3.57142857 3.57142857 4 7 C3.67 7.99 3.34 8.98 3 10 C0.69 10.33 -1.62 10.66 -4 11 C-2.68 10.34 -1.36 9.68 0 9 C0 6.03 0 3.06 0 0 Z " fill="#3F9687" transform="translate(330,35)"/>
<path d="M0 0 C0 0.99 0 1.98 0 3 C-1.2065625 3.433125 -1.2065625 3.433125 -2.4375 3.875 C-5.1326468 4.73262568 -5.1326468 4.73262568 -6 7 C-6.99 5.35 -7.98 3.7 -9 2 C-2.25 0 -2.25 0 0 0 Z " fill="#D63E2C" transform="translate(44,40)"/>
<path d="M0 0 C0.99 0.33 1.98 0.66 3 1 C2.34 1.66 1.68 2.32 1 3 C3.31 4.98 5.62 6.96 8 9 C7.01 9.495 7.01 9.495 6 10 C2.62078832 8.80092489 0.74639096 7.12512066 -1 4 C-0.6875 1.75 -0.6875 1.75 0 0 Z " fill="#E9AC48" transform="translate(189,36)"/>
<path d="M0 0 C2.475 0.99 2.475 0.99 5 2 C4.67 2.99 4.34 3.98 4 5 C-1.75 5.125 -1.75 5.125 -4 4 C-4 3.34 -4 2.68 -4 2 C-1.525 2.99 -1.525 2.99 1 4 C1 3.34 1 2.68 1 2 C0.34 1.67 -0.32 1.34 -1 1 C-0.67 0.67 -0.34 0.34 0 0 Z " fill="#FDD150" transform="translate(365,73)"/>
<path d="M0 0 C3.94139078 1.66751148 6.7892812 4.22710649 10 7 C7.35945505 7 5.51457338 6.64892216 3 6 C2.34 6 1.68 6 1 6 C0.67 4.02 0.34 2.04 0 0 Z " fill="#EBAA46" transform="translate(197,46)"/>
<path d="M0 0 C0.66 0.33 1.32 0.66 2 1 C1.34 2.98 0.68 4.96 0 7 C0.66 7.33 1.32 7.66 2 8 C0.35 7.67 -1.3 7.34 -3 7 C-3.33 5.68 -3.66 4.36 -4 3 C-2.68 2.67 -1.36 2.34 0 2 C0 1.34 0 0.68 0 0 Z " fill="#EFAB47" transform="translate(143,45)"/>
<path d="M0 0 C4.02550319 1.3418344 4.88285636 3.4227573 7 7 C7 7.66 7 8.32 7 9 C6.34 9 5.68 9 5 9 C5 8.34 5 7.68 5 7 C4.01 6.67 3.02 6.34 2 6 C0.8125 2.9375 0.8125 2.9375 0 0 Z " fill="#CA4C3E" transform="translate(378,9)"/>
<path d="M0 0 C0.99 0.33 1.98 0.66 3 1 C3 1.66 3 2.32 3 3 C3.66 3.33 4.32 3.66 5 4 C3.1875 5.0625 3.1875 5.0625 1 6 C0.01 5.67 -0.98 5.34 -2 5 C-1.34 3.35 -0.68 1.7 0 0 Z " fill="#D53D2F" transform="translate(39,60)"/>
<path d="M0 0 C1.65 0 3.3 0 5 0 C5 0.66 5 1.32 5 2 C5.66 2 6.32 2 7 2 C6.67 3.32 6.34 4.64 6 6 C4.68 4.68 3.36 3.36 2 2 C1.34 2.66 0.68 3.32 0 4 C0 2.68 0 1.36 0 0 Z " fill="#F1AA44" transform="translate(179,46)"/>
<path d="M0 0 C-0.33 0.66 -0.66 1.32 -1 2 C-4.375 2.125 -4.375 2.125 -8 2 C-8.66 1.34 -9.32 0.68 -10 0 C-6.42355152 -1.2380014 -3.66305234 -0.74926071 0 0 Z " fill="#F3A33B" transform="translate(111,67)"/>
<path d="M0 0 C3.875 1.75 3.875 1.75 5 4 C5.039992 5.99960012 5.04346799 8.00047242 5 10 C2.35534962 6.8745041 1.15585285 3.91211733 0 0 Z " fill="#EBAC4E" transform="translate(207,54)"/>
<path d="M0 0 C0.66 0 1.32 0 2 0 C1.64950425 3.24208567 1.43778819 4.61527704 -1.0625 6.8125 C-1.701875 7.204375 -2.34125 7.59625 -3 8 C-3 6.35 -3 4.7 -3 3 C-2.01 3 -1.02 3 0 3 C0 2.01 0 1.02 0 0 Z " fill="#CF422E" transform="translate(47,55)"/>
<path d="M0 0 C0.66 0.33 1.32 0.66 2 1 C2 1.99 2 2.98 2 4 C3.65 3.67 5.3 3.34 7 3 C6.67 3.66 6.34 4.32 6 5 C3.69 5 1.38 5 -1 5 C-0.67 3.35 -0.34 1.7 0 0 Z " fill="#CF4232" transform="translate(82,58)"/>
<path d="M0 0 C1.32 0.33 2.64 0.66 4 1 C3.67 2.98 3.34 4.96 3 7 C2.01 6.34 1.02 5.68 0 5 C-0.1875 2.375 -0.1875 2.375 0 0 Z " fill="#CF4137" transform="translate(8,57)"/>
<path d="M0 0 C1.7074998 1.28062485 3.37373596 2.61767557 5 4 C5 4.66 5 5.32 5 6 C5.66 6 6.32 6 7 6 C6.67 6.99 6.34 7.98 6 9 C0.42857143 3.85714286 0.42857143 3.85714286 0 0 Z " fill="#D15030" transform="translate(358,64)"/>
<path d="M0 0 C0 0.33 0 0.66 0 1 C-5.16044765 2.512545 -8.65998179 3.33500455 -14 2 C-14 1.67 -14 1.34 -14 1 C-9.32798795 -0.20568053 -4.78503708 -0.09382426 0 0 Z " fill="#ECAA41" transform="translate(124,54)"/>
<path d="M0 0 C0.33 0 0.66 0 1 0 C1.33 2.64 1.66 5.28 2 8 C1.01 8 0.02 8 -1 8 C-1 7.34 -1 6.68 -1 6 C-1.99 5.67 -2.98 5.34 -4 5 C-2.68 4.67 -1.36 4.34 0 4 C0 2.68 0 1.36 0 0 Z " fill="#D83C2A" transform="translate(20,48)"/>
<path d="M0 0 C0.66 0.33 1.32 0.66 2 1 C0.68 3.64 -0.64 6.28 -2 9 C-2.33 9 -2.66 9 -3 9 C-3.33 7.02 -3.66 5.04 -4 3 C-3.01 2.67 -2.02 2.34 -1 2 C-0.67 1.34 -0.34 0.68 0 0 Z " fill="#C54C41" transform="translate(378,45)"/>
<path d="M0 0 C0.5625 1.9375 0.5625 1.9375 1 4 C0.67 4.33 0.34 4.66 0 5 C-0.36760731 7.32817964 -0.70241581 9.6618385 -1 12 C-1.33 12 -1.66 12 -2 12 C-2.05422947 10.5629191 -2.09289723 9.12524538 -2.125 7.6875 C-2.14820313 6.88699219 -2.17140625 6.08648437 -2.1953125 5.26171875 C-2 3 -2 3 0 0 Z " fill="#CE4235" transform="translate(58,40)"/>
<path d="M0 0 C2 1 2 1 3 2 C2.71269945 4.33944736 2.38063221 6.6739143 2 9 C1.67 9 1.34 9 1 9 C0.67 6.03 0.34 3.06 0 0 Z " fill="#F1A940" transform="translate(226,41)"/>
<path d="M0 0 C0.33 0.66 0.66 1.32 1 2 C0.3125 4.0625 0.3125 4.0625 -1 6 C-3.125 6.75 -3.125 6.75 -5 7 C-3.70700306 4.11562221 -2.34058637 2.12780579 0 0 Z " fill="#C74434" transform="translate(64,33)"/>
<path d="M0 0 C5.53846154 -0.36923077 5.53846154 -0.36923077 7.875 1.5 C8.24625 1.995 8.6175 2.49 9 3 C7.35 3.33 5.7 3.66 4 4 C3.67 3.01 3.34 2.02 3 1 C2.01 0.67 1.02 0.34 0 0 Z " fill="#35998B" transform="translate(321,32)"/>
<path d="M0 0 C0.33 0.99 0.66 1.98 1 3 C3.01508358 3.73323796 3.01508358 3.73323796 5 4 C5 4.99 5 5.98 5 7 C3.68 6.67 2.36 6.34 1 6 C0.67 4.02 0.34 2.04 0 0 Z " fill="#3A9789" transform="translate(255,20)"/>
</svg>
